G04 #@! TF.GenerationSoftware,KiCad,Pcbnew,8.0.7-8.0.7-0~ubuntu22.04.1*
G04 #@! TF.CreationDate,2025-03-20T12:44:00-04:00*
G04 #@! TF.ProjectId,trigger,74726967-6765-4722-9e6b-696361645f70,rev?*
G04 #@! TF.SameCoordinates,Original*
G04 #@! TF.FileFunction,Paste,Top*
G04 #@! TF.FilePolarity,Positive*
%FSLAX46Y46*%
G04 Gerber Fmt 4.6, Leading zero omitted, Abs format (unit mm)*
G04 Created by KiCad (PCBNEW 8.0.7-8.0.7-0~ubuntu22.04.1) date 2025-03-20 12:44:00*
%MOMM*%
%LPD*%
G01*
G04 APERTURE LIST*
G04 Aperture macros list*
%AMRoundRect*
0 Rectangle with rounded corners*
0 $1 Rounding radius*
0 $2 $3 $4 $5 $6 $7 $8 $9 X,Y pos of 4 corners*
0 Add a 4 corners polygon primitive as box body*
4,1,4,$2,$3,$4,$5,$6,$7,$8,$9,$2,$3,0*
0 Add four circle primitives for the rounded corners*
1,1,$1+$1,$2,$3*
1,1,$1+$1,$4,$5*
1,1,$1+$1,$6,$7*
1,1,$1+$1,$8,$9*
0 Add four rect primitives between the rounded corners*
20,1,$1+$1,$2,$3,$4,$5,0*
20,1,$1+$1,$4,$5,$6,$7,0*
20,1,$1+$1,$6,$7,$8,$9,0*
20,1,$1+$1,$8,$9,$2,$3,0*%
%AMFreePoly0*
4,1,19,0.178553,0.213392,0.221317,0.164040,0.231790,0.115895,0.231790,-0.012362,0.213392,-0.075020,0.197845,-0.094312,0.094312,-0.197845,0.036997,-0.229141,0.012362,-0.231790,-0.115895,-0.231790,-0.178553,-0.213392,-0.221317,-0.164040,-0.231790,-0.115895,-0.231790,0.115895,-0.213392,0.178553,-0.164040,0.221317,-0.115895,0.231790,0.115895,0.231790,0.178553,0.213392,0.178553,0.213392,
$1*%
%AMFreePoly1*
4,1,21,0.122595,0.381565,0.128518,0.376137,0.204814,0.299841,0.231439,0.242746,0.231789,0.234719,0.231789,-0.234719,0.210242,-0.293918,0.204814,-0.299841,0.128518,-0.376137,0.071423,-0.402762,0.063396,-0.403112,-0.139692,-0.403112,-0.198891,-0.381565,-0.230390,-0.327007,-0.231789,-0.311015,-0.231789,0.311015,-0.210242,0.370214,-0.155684,0.401713,-0.139692,0.403112,0.063396,0.403112,
0.122595,0.381565,0.122595,0.381565,$1*%
%AMFreePoly2*
4,1,19,0.075020,0.213392,0.094312,0.197845,0.197845,0.094312,0.229141,0.036997,0.231790,0.012362,0.231790,-0.115895,0.213392,-0.178553,0.164040,-0.221317,0.115895,-0.231790,-0.115895,-0.231790,-0.178553,-0.213392,-0.221317,-0.164040,-0.231790,-0.115895,-0.231790,0.115895,-0.213392,0.178553,-0.164040,0.221317,-0.115895,0.231790,0.012362,0.231790,0.075020,0.213392,0.075020,0.213392,
$1*%
%AMFreePoly3*
4,1,21,0.370214,0.210242,0.401713,0.155684,0.403112,0.139692,0.403112,-0.063396,0.381565,-0.122595,0.376137,-0.128518,0.299841,-0.204814,0.242746,-0.231439,0.234719,-0.231789,-0.234719,-0.231789,-0.293918,-0.210242,-0.299841,-0.204814,-0.376137,-0.128518,-0.402762,-0.071423,-0.403112,-0.063396,-0.403112,0.139692,-0.381565,0.198891,-0.327007,0.230390,-0.311015,0.231789,0.311015,0.231789,
0.370214,0.210242,0.370214,0.210242,$1*%
%AMFreePoly4*
4,1,21,0.293918,0.210242,0.299841,0.204814,0.376137,0.128518,0.402762,0.071423,0.403112,0.063396,0.403112,-0.139692,0.381565,-0.198891,0.327007,-0.230390,0.311015,-0.231789,-0.311015,-0.231789,-0.370214,-0.210242,-0.401713,-0.155684,-0.403112,-0.139692,-0.403112,0.063396,-0.381565,0.122595,-0.376137,0.128518,-0.299841,0.204814,-0.242746,0.231439,-0.234719,0.231789,0.234719,0.231789,
0.293918,0.210242,0.293918,0.210242,$1*%
%AMFreePoly5*
4,1,19,0.178553,0.213392,0.221317,0.164040,0.231790,0.115895,0.231790,-0.115895,0.213392,-0.178553,0.164040,-0.221317,0.115895,-0.231790,-0.012362,-0.231790,-0.075020,-0.213392,-0.094312,-0.197845,-0.197845,-0.094312,-0.229141,-0.036997,-0.231790,-0.012362,-0.231790,0.115895,-0.213392,0.178553,-0.164040,0.221317,-0.115895,0.231790,0.115895,0.231790,0.178553,0.213392,0.178553,0.213392,
$1*%
%AMFreePoly6*
4,1,21,0.198891,0.381565,0.230390,0.327007,0.231789,0.311015,0.231789,-0.311015,0.210242,-0.370214,0.155684,-0.401713,0.139692,-0.403112,-0.063396,-0.403112,-0.122595,-0.381565,-0.128518,-0.376137,-0.204814,-0.299841,-0.231439,-0.242746,-0.231789,-0.234719,-0.231789,0.234719,-0.210242,0.293918,-0.204814,0.299841,-0.128518,0.376137,-0.071423,0.402762,-0.063396,0.403112,0.139692,0.403112,
0.198891,0.381565,0.198891,0.381565,$1*%
%AMFreePoly7*
4,1,19,0.178553,0.213392,0.221317,0.164040,0.231790,0.115895,0.231790,-0.115895,0.213392,-0.178553,0.164040,-0.221317,0.115895,-0.231790,-0.115895,-0.231790,-0.178553,-0.213392,-0.221317,-0.164040,-0.231790,-0.115895,-0.231790,0.012362,-0.213392,0.075020,-0.197845,0.094312,-0.094312,0.197845,-0.036997,0.229141,-0.012362,0.231790,0.115895,0.231790,0.178553,0.213392,0.178553,0.213392,
$1*%
G04 Aperture macros list end*
%ADD10R,0.750000X0.650000*%
%ADD11RoundRect,0.062500X-0.187500X-0.062500X0.187500X-0.062500X0.187500X0.062500X-0.187500X0.062500X0*%
%ADD12RoundRect,0.200000X0.200000X0.275000X-0.200000X0.275000X-0.200000X-0.275000X0.200000X-0.275000X0*%
%ADD13RoundRect,0.200000X-0.200000X-0.275000X0.200000X-0.275000X0.200000X0.275000X-0.200000X0.275000X0*%
%ADD14RoundRect,0.135000X-0.135000X-0.185000X0.135000X-0.185000X0.135000X0.185000X-0.135000X0.185000X0*%
%ADD15RoundRect,0.140000X-0.140000X-0.170000X0.140000X-0.170000X0.140000X0.170000X-0.140000X0.170000X0*%
%ADD16RoundRect,0.225000X-0.225000X-0.250000X0.225000X-0.250000X0.225000X0.250000X-0.225000X0.250000X0*%
%ADD17RoundRect,0.225000X0.250000X-0.225000X0.250000X0.225000X-0.250000X0.225000X-0.250000X-0.225000X0*%
%ADD18RoundRect,0.225000X-0.250000X0.225000X-0.250000X-0.225000X0.250000X-0.225000X0.250000X0.225000X0*%
%ADD19RoundRect,0.225000X0.225000X0.250000X-0.225000X0.250000X-0.225000X-0.250000X0.225000X-0.250000X0*%
%ADD20R,1.050000X1.000000*%
%ADD21R,2.200000X1.050000*%
%ADD22RoundRect,0.140000X0.140000X0.170000X-0.140000X0.170000X-0.140000X-0.170000X0.140000X-0.170000X0*%
%ADD23RoundRect,0.135000X-0.185000X0.135000X-0.185000X-0.135000X0.185000X-0.135000X0.185000X0.135000X0*%
%ADD24RoundRect,0.140000X-0.170000X0.140000X-0.170000X-0.140000X0.170000X-0.140000X0.170000X0.140000X0*%
%ADD25R,2.700000X0.800000*%
%ADD26RoundRect,0.135000X0.135000X0.185000X-0.135000X0.185000X-0.135000X-0.185000X0.135000X-0.185000X0*%
%ADD27RoundRect,0.150000X-0.512500X-0.150000X0.512500X-0.150000X0.512500X0.150000X-0.512500X0.150000X0*%
%ADD28RoundRect,0.098425X0.651575X0.651575X-0.651575X0.651575X-0.651575X-0.651575X0.651575X-0.651575X0*%
%ADD29RoundRect,0.140000X0.170000X-0.140000X0.170000X0.140000X-0.170000X0.140000X-0.170000X-0.140000X0*%
%ADD30RoundRect,0.250000X-0.650000X0.325000X-0.650000X-0.325000X0.650000X-0.325000X0.650000X0.325000X0*%
%ADD31FreePoly0,180.000000*%
%ADD32FreePoly1,180.000000*%
%ADD33FreePoly2,180.000000*%
%ADD34FreePoly3,180.000000*%
%ADD35RoundRect,0.201557X0.201556X0.201556X-0.201556X0.201556X-0.201556X-0.201556X0.201556X-0.201556X0*%
%ADD36FreePoly4,180.000000*%
%ADD37FreePoly5,180.000000*%
%ADD38FreePoly6,180.000000*%
%ADD39FreePoly7,180.000000*%
%ADD40RoundRect,0.087500X0.425000X0.087500X-0.425000X0.087500X-0.425000X-0.087500X0.425000X-0.087500X0*%
%ADD41RoundRect,0.087500X0.087500X0.425000X-0.087500X0.425000X-0.087500X-0.425000X0.087500X-0.425000X0*%
%ADD42RoundRect,0.250000X0.325000X0.650000X-0.325000X0.650000X-0.325000X-0.650000X0.325000X-0.650000X0*%
%ADD43FreePoly0,270.000000*%
%ADD44FreePoly1,270.000000*%
%ADD45FreePoly2,270.000000*%
%ADD46FreePoly3,270.000000*%
%ADD47RoundRect,0.201557X-0.201556X0.201556X-0.201556X-0.201556X0.201556X-0.201556X0.201556X0.201556X0*%
%ADD48FreePoly4,270.000000*%
%ADD49FreePoly5,270.000000*%
%ADD50FreePoly6,270.000000*%
%ADD51FreePoly7,270.000000*%
%ADD52RoundRect,0.087500X-0.087500X0.425000X-0.087500X-0.425000X0.087500X-0.425000X0.087500X0.425000X0*%
%ADD53RoundRect,0.087500X-0.425000X0.087500X-0.425000X-0.087500X0.425000X-0.087500X0.425000X0.087500X0*%
%ADD54RoundRect,0.200000X0.275000X-0.200000X0.275000X0.200000X-0.275000X0.200000X-0.275000X-0.200000X0*%
%ADD55RoundRect,0.150000X0.150000X-0.512500X0.150000X0.512500X-0.150000X0.512500X-0.150000X-0.512500X0*%
G04 APERTURE END LIST*
D10*
X182225000Y-111775000D03*
X182225000Y-112575000D03*
D11*
X181275000Y-111425000D03*
X181275000Y-111925000D03*
X181275000Y-112425000D03*
X181275000Y-112925000D03*
X183175000Y-112925000D03*
X183175000Y-112425000D03*
X183175000Y-111925000D03*
X183175000Y-111425000D03*
D10*
X157275000Y-111750000D03*
X157275000Y-112550000D03*
D11*
X156325000Y-111400000D03*
X156325000Y-111900000D03*
X156325000Y-112400000D03*
X156325000Y-112900000D03*
X158225000Y-112900000D03*
X158225000Y-112400000D03*
X158225000Y-111900000D03*
X158225000Y-111400000D03*
D10*
X132225000Y-111800000D03*
X132225000Y-112600000D03*
D11*
X131275000Y-111450000D03*
X131275000Y-111950000D03*
X131275000Y-112450000D03*
X131275000Y-112950000D03*
X133175000Y-112950000D03*
X133175000Y-112450000D03*
X133175000Y-111950000D03*
X133175000Y-111450000D03*
D10*
X107225000Y-111775000D03*
X107225000Y-112575000D03*
D11*
X106275000Y-111425000D03*
X106275000Y-111925000D03*
X106275000Y-112425000D03*
X106275000Y-112925000D03*
X108175000Y-112925000D03*
X108175000Y-112425000D03*
X108175000Y-111925000D03*
X108175000Y-111425000D03*
D12*
X81275000Y-113900000D03*
X82925000Y-113900000D03*
D13*
X179925000Y-111425000D03*
X178275000Y-111425000D03*
D14*
X180170000Y-112675000D03*
X179150000Y-112675000D03*
D13*
X154975000Y-111400000D03*
X153325000Y-111400000D03*
D14*
X155210000Y-112625000D03*
X154190000Y-112625000D03*
D13*
X129925000Y-111450000D03*
X128275000Y-111450000D03*
D14*
X130160000Y-112700000D03*
X129140000Y-112700000D03*
X105160000Y-112675000D03*
X104140000Y-112675000D03*
D15*
X179230000Y-110200000D03*
X178270000Y-110200000D03*
X154280000Y-110175000D03*
X153320000Y-110175000D03*
X129230000Y-110225000D03*
X128270000Y-110225000D03*
D16*
X75725000Y-103250000D03*
X74175000Y-103250000D03*
D17*
X75100000Y-106575000D03*
X75100000Y-105025000D03*
D18*
X77200000Y-111475000D03*
X77200000Y-109925000D03*
D19*
X78775000Y-95750000D03*
X80325000Y-95750000D03*
D16*
X85150000Y-93975000D03*
X83600000Y-93975000D03*
D18*
X82150000Y-99375000D03*
X82150000Y-97825000D03*
D20*
X178525000Y-116000000D03*
D21*
X177000000Y-114525000D03*
X177000000Y-117475000D03*
X152000000Y-117475000D03*
X152000000Y-114525000D03*
D20*
X153525000Y-116000000D03*
D21*
X127000000Y-117475000D03*
X127000000Y-114525000D03*
D20*
X128525000Y-116000000D03*
D21*
X102000000Y-117475000D03*
X102000000Y-114525000D03*
D20*
X103525000Y-116000000D03*
D22*
X113520000Y-95400000D03*
X114480000Y-95400000D03*
D14*
X110610000Y-112575000D03*
X109590000Y-112575000D03*
D23*
X114500000Y-90500000D03*
X114500000Y-89480000D03*
D24*
X190700000Y-115505000D03*
X190700000Y-114545000D03*
D23*
X139400000Y-90510000D03*
X139400000Y-89490000D03*
D25*
X76400000Y-100500000D03*
X76400000Y-98300000D03*
D12*
X80262500Y-87650000D03*
X81912500Y-87650000D03*
D26*
X109640000Y-114487500D03*
X110660000Y-114487500D03*
D23*
X114500000Y-93410000D03*
X114500000Y-92390000D03*
X139400000Y-93510000D03*
X139400000Y-92490000D03*
D22*
X138420000Y-95500000D03*
X139380000Y-95500000D03*
D13*
X104925000Y-111425000D03*
X103275000Y-111425000D03*
D27*
X164337500Y-112625000D03*
X164337500Y-113575000D03*
X164337500Y-114525000D03*
X162062500Y-114525000D03*
X162062500Y-113575000D03*
X162062500Y-112625000D03*
D22*
X163420000Y-91500000D03*
X164380000Y-91500000D03*
D28*
X146800000Y-96800000D03*
X153200000Y-103200000D03*
D29*
X135600000Y-110600000D03*
X135600000Y-111560000D03*
X84850000Y-99230000D03*
X84850000Y-98270000D03*
D22*
X88420000Y-95400000D03*
X89380000Y-95400000D03*
X133620000Y-116250000D03*
X134580000Y-116250000D03*
D30*
X84087500Y-92375000D03*
X84087500Y-89425000D03*
D12*
X77262500Y-87650000D03*
X78912500Y-87650000D03*
D24*
X115700000Y-115460000D03*
X115700000Y-114500000D03*
D15*
X107480000Y-114000000D03*
X106520000Y-114000000D03*
D14*
X80760000Y-101975000D03*
X79740000Y-101975000D03*
D29*
X160650000Y-110595000D03*
X160650000Y-111555000D03*
D24*
X140700000Y-115480000D03*
X140700000Y-114520000D03*
D31*
X80887500Y-107350000D03*
D32*
X80887500Y-106562500D03*
X80887500Y-105562500D03*
D33*
X80887500Y-104775000D03*
D34*
X80100000Y-107350000D03*
D35*
X80100000Y-106562500D03*
X80100000Y-105562500D03*
D36*
X80100000Y-104775000D03*
D34*
X79100000Y-107350000D03*
D35*
X79100000Y-106562500D03*
X79100000Y-105562500D03*
D36*
X79100000Y-104775000D03*
D37*
X78312500Y-107350000D03*
D38*
X78312500Y-106562500D03*
X78312500Y-105562500D03*
D39*
X78312500Y-104775000D03*
D40*
X81962500Y-107362500D03*
X81962500Y-106712500D03*
X81962500Y-106062500D03*
X81962500Y-105412500D03*
X81962500Y-104762500D03*
D41*
X80900000Y-103700000D03*
X80250000Y-103700000D03*
X79600000Y-103700000D03*
X78950000Y-103700000D03*
X78300000Y-103700000D03*
D40*
X77237500Y-104762500D03*
X77237500Y-105412500D03*
X77237500Y-106062500D03*
X77237500Y-106712500D03*
X77237500Y-107362500D03*
D41*
X78300000Y-108425000D03*
X78950000Y-108425000D03*
X79600000Y-108425000D03*
X80250000Y-108425000D03*
X80900000Y-108425000D03*
D29*
X110600000Y-110595000D03*
X110600000Y-111555000D03*
D15*
X157480000Y-114000000D03*
X156520000Y-114000000D03*
X104230000Y-110200000D03*
X103270000Y-110200000D03*
D22*
X183620000Y-116250000D03*
X184580000Y-116250000D03*
D15*
X132480000Y-114000000D03*
X131520000Y-114000000D03*
D29*
X185600000Y-110595000D03*
X185600000Y-111555000D03*
D13*
X138225000Y-116100000D03*
X136575000Y-116100000D03*
D24*
X165750000Y-115505000D03*
X165750000Y-114545000D03*
D21*
X113500000Y-107975000D03*
X113500000Y-110925000D03*
D20*
X111975000Y-109450000D03*
D29*
X109600000Y-110595000D03*
X109600000Y-111555000D03*
D22*
X163420000Y-96500000D03*
X164380000Y-96500000D03*
D14*
X160650000Y-112575000D03*
X159630000Y-112575000D03*
D29*
X134600000Y-110600000D03*
X134600000Y-111560000D03*
D20*
X136975000Y-109450000D03*
D21*
X138500000Y-110925000D03*
X138500000Y-107975000D03*
D14*
X185600000Y-112575000D03*
X184580000Y-112575000D03*
D22*
X138420000Y-94500000D03*
X139380000Y-94500000D03*
X159580000Y-116250000D03*
X158620000Y-116250000D03*
D13*
X163225000Y-116125000D03*
X161575000Y-116125000D03*
D22*
X163420000Y-94500000D03*
X164380000Y-94500000D03*
D21*
X163550000Y-108000000D03*
X163550000Y-110950000D03*
D20*
X162025000Y-109475000D03*
D27*
X114287500Y-112587500D03*
X114287500Y-113537500D03*
X114287500Y-114487500D03*
X112012500Y-114487500D03*
X112012500Y-113537500D03*
X112012500Y-112587500D03*
D13*
X188125000Y-116125000D03*
X186475000Y-116125000D03*
D14*
X135600000Y-112580000D03*
X134580000Y-112580000D03*
D28*
X96800000Y-96800000D03*
X103200000Y-103200000D03*
D27*
X187012500Y-112625000D03*
X187012500Y-113575000D03*
X187012500Y-114525000D03*
X189287500Y-114525000D03*
X189287500Y-113575000D03*
X189287500Y-112625000D03*
D23*
X89400000Y-93410000D03*
X89400000Y-92390000D03*
D22*
X108620000Y-116250000D03*
X109580000Y-116250000D03*
X113520000Y-94400000D03*
X114480000Y-94400000D03*
D26*
X159690000Y-114525000D03*
X160710000Y-114525000D03*
D22*
X113520000Y-96400000D03*
X114480000Y-96400000D03*
X138420000Y-91500000D03*
X139380000Y-91500000D03*
X88420000Y-94400000D03*
X89380000Y-94400000D03*
D13*
X113225000Y-116087500D03*
X111575000Y-116087500D03*
D28*
X171800000Y-96800000D03*
X178200000Y-103200000D03*
D22*
X163420000Y-95500000D03*
X164380000Y-95500000D03*
D15*
X181520000Y-114000000D03*
X182480000Y-114000000D03*
D26*
X134640000Y-114500000D03*
X135660000Y-114500000D03*
D28*
X121800000Y-96800000D03*
X128200000Y-103200000D03*
D23*
X164400000Y-90510000D03*
X164400000Y-89490000D03*
D22*
X88420000Y-91400000D03*
X89380000Y-91400000D03*
X113520000Y-91400000D03*
X114480000Y-91400000D03*
D13*
X82925000Y-112400000D03*
X81275000Y-112400000D03*
D23*
X89400000Y-90470000D03*
X89400000Y-89450000D03*
D22*
X88420000Y-96400000D03*
X89380000Y-96400000D03*
D42*
X78825000Y-110450000D03*
X81775000Y-110450000D03*
D22*
X138420000Y-96500000D03*
X139380000Y-96500000D03*
D15*
X75030000Y-102000000D03*
X74070000Y-102000000D03*
D29*
X159650000Y-110595000D03*
X159650000Y-111555000D03*
D26*
X184640000Y-114525000D03*
X185660000Y-114525000D03*
D27*
X139287500Y-112600000D03*
X139287500Y-113550000D03*
X139287500Y-114500000D03*
X137012500Y-114500000D03*
X137012500Y-113550000D03*
X137012500Y-112600000D03*
D23*
X164400000Y-93500000D03*
X164400000Y-92480000D03*
D29*
X184600000Y-110595000D03*
X184600000Y-111555000D03*
D21*
X188450000Y-108000000D03*
X188450000Y-110950000D03*
D20*
X186925000Y-109475000D03*
D43*
X80987500Y-90412500D03*
D44*
X80200000Y-90412500D03*
X79200000Y-90412500D03*
D45*
X78412500Y-90412500D03*
D46*
X80987500Y-91200000D03*
D47*
X80200000Y-91200000D03*
X79200000Y-91200000D03*
D48*
X78412500Y-91200000D03*
D46*
X80987500Y-92200000D03*
D47*
X80200000Y-92200000D03*
X79200000Y-92200000D03*
D48*
X78412500Y-92200000D03*
D49*
X80987500Y-92987500D03*
D50*
X80200000Y-92987500D03*
X79200000Y-92987500D03*
D51*
X78412500Y-92987500D03*
D52*
X81000000Y-89337500D03*
X80350000Y-89337500D03*
X79700000Y-89337500D03*
X79050000Y-89337500D03*
X78400000Y-89337500D03*
D53*
X77337500Y-90400000D03*
X77337500Y-91050000D03*
X77337500Y-91700000D03*
X77337500Y-92350000D03*
X77337500Y-93000000D03*
D52*
X78400000Y-94062500D03*
X79050000Y-94062500D03*
X79700000Y-94062500D03*
X80350000Y-94062500D03*
X81000000Y-94062500D03*
D53*
X82062500Y-93000000D03*
X82062500Y-92350000D03*
X82062500Y-91700000D03*
X82062500Y-91050000D03*
X82062500Y-90400000D03*
D54*
X83650000Y-97775000D03*
X83650000Y-99425000D03*
D21*
X188500000Y-89025000D03*
X188500000Y-91975000D03*
D20*
X186975000Y-90500000D03*
D55*
X78750000Y-100550000D03*
X79700000Y-100550000D03*
X80650000Y-100550000D03*
X80650000Y-98275000D03*
X79700000Y-98275000D03*
X78750000Y-98275000D03*
G36*
X120485648Y-98014352D02*
G01*
X120500000Y-98049000D01*
X120500000Y-104500000D01*
X126951000Y-104500000D01*
X126985648Y-104514352D01*
X127000000Y-104549000D01*
X127000000Y-108951000D01*
X126985648Y-108985648D01*
X126951000Y-109000000D01*
X116049000Y-109000000D01*
X116014352Y-108985648D01*
X116000000Y-108951000D01*
X116000000Y-98049000D01*
X116014352Y-98014352D01*
X116049000Y-98000000D01*
X120451000Y-98000000D01*
X120485648Y-98014352D01*
G37*
G36*
X170485648Y-98014352D02*
G01*
X170500000Y-98049000D01*
X170500000Y-104500000D01*
X176951000Y-104500000D01*
X176985648Y-104514352D01*
X177000000Y-104549000D01*
X177000000Y-108951000D01*
X176985648Y-108985648D01*
X176951000Y-109000000D01*
X166049000Y-109000000D01*
X166014352Y-108985648D01*
X166000000Y-108951000D01*
X166000000Y-98049000D01*
X166014352Y-98014352D01*
X166049000Y-98000000D01*
X170451000Y-98000000D01*
X170485648Y-98014352D01*
G37*
G36*
X108985648Y-91014352D02*
G01*
X109000000Y-91049000D01*
X109000000Y-108951000D01*
X108985648Y-108985648D01*
X108951000Y-109000000D01*
X104549000Y-109000000D01*
X104514352Y-108985648D01*
X104500000Y-108951000D01*
X104500000Y-95500000D01*
X91049000Y-95500000D01*
X91014352Y-95485648D01*
X91000000Y-95451000D01*
X91000000Y-91049000D01*
X91014352Y-91014352D01*
X91049000Y-91000000D01*
X108951000Y-91000000D01*
X108985648Y-91014352D01*
G37*
G36*
X133985648Y-91014352D02*
G01*
X134000000Y-91049000D01*
X134000000Y-108951000D01*
X133985648Y-108985648D01*
X133951000Y-109000000D01*
X129549000Y-109000000D01*
X129514352Y-108985648D01*
X129500000Y-108951000D01*
X129500000Y-95500000D01*
X116049000Y-95500000D01*
X116014352Y-95485648D01*
X116000000Y-95451000D01*
X116000000Y-91049000D01*
X116014352Y-91014352D01*
X116049000Y-91000000D01*
X133951000Y-91000000D01*
X133985648Y-91014352D01*
G37*
G36*
X95485648Y-98014352D02*
G01*
X95500000Y-98049000D01*
X95500000Y-104500000D01*
X101951000Y-104500000D01*
X101985648Y-104514352D01*
X102000000Y-104549000D01*
X102000000Y-108951000D01*
X101985648Y-108985648D01*
X101951000Y-109000000D01*
X91049000Y-109000000D01*
X91014352Y-108985648D01*
X91000000Y-108951000D01*
X91000000Y-98049000D01*
X91014352Y-98014352D01*
X91049000Y-98000000D01*
X95451000Y-98000000D01*
X95485648Y-98014352D01*
G37*
G36*
X183985648Y-91014352D02*
G01*
X184000000Y-91049000D01*
X184000000Y-108951000D01*
X183985648Y-108985648D01*
X183951000Y-109000000D01*
X179549000Y-109000000D01*
X179514352Y-108985648D01*
X179500000Y-108951000D01*
X179500000Y-95500000D01*
X166049000Y-95500000D01*
X166014352Y-95485648D01*
X166000000Y-95451000D01*
X166000000Y-91049000D01*
X166014352Y-91014352D01*
X166049000Y-91000000D01*
X183951000Y-91000000D01*
X183985648Y-91014352D01*
G37*
G36*
X158985648Y-91014352D02*
G01*
X159000000Y-91049000D01*
X159000000Y-108951000D01*
X158985648Y-108985648D01*
X158951000Y-109000000D01*
X154549000Y-109000000D01*
X154514352Y-108985648D01*
X154500000Y-108951000D01*
X154500000Y-95500000D01*
X141049000Y-95500000D01*
X141014352Y-95485648D01*
X141000000Y-95451000D01*
X141000000Y-91049000D01*
X141014352Y-91014352D01*
X141049000Y-91000000D01*
X158951000Y-91000000D01*
X158985648Y-91014352D01*
G37*
G36*
X145485648Y-98014352D02*
G01*
X145500000Y-98049000D01*
X145500000Y-104500000D01*
X151951000Y-104500000D01*
X151985648Y-104514352D01*
X152000000Y-104549000D01*
X152000000Y-108951000D01*
X151985648Y-108985648D01*
X151951000Y-109000000D01*
X141049000Y-109000000D01*
X141014352Y-108985648D01*
X141000000Y-108951000D01*
X141000000Y-98049000D01*
X141014352Y-98014352D01*
X141049000Y-98000000D01*
X145451000Y-98000000D01*
X145485648Y-98014352D01*
G37*
M02*
