G04 #@! TF.GenerationSoftware,KiCad,Pcbnew,8.0.7-8.0.7-0~ubuntu22.04.1*
G04 #@! TF.CreationDate,2025-03-20T12:44:00-04:00*
G04 #@! TF.ProjectId,trigger,74726967-6765-4722-9e6b-696361645f70,rev?*
G04 #@! TF.SameCoordinates,Original*
G04 #@! TF.FileFunction,Legend,Bot*
G04 #@! TF.FilePolarity,Positive*
%FSLAX46Y46*%
G04 Gerber Fmt 4.6, Leading zero omitted, Abs format (unit mm)*
G04 Created by KiCad (PCBNEW 8.0.7-8.0.7-0~ubuntu22.04.1) date 2025-03-20 12:44:00*
%MOMM*%
%LPD*%
G01*
G04 APERTURE LIST*
%ADD10C,0.100000*%
%ADD11C,0.150000*%
%ADD12C,0.120000*%
%ADD13C,5.600000*%
%ADD14O,1.700000X1.700000*%
%ADD15R,1.700000X1.700000*%
G04 APERTURE END LIST*
D10*
X90000000Y-90000000D02*
X110000000Y-90000000D01*
X110000000Y-110000000D01*
X90000000Y-110000000D01*
X90000000Y-90000000D01*
X146500000Y-96500000D02*
X153500000Y-96500000D01*
X153500000Y-103500000D01*
X146500000Y-103500000D01*
X146500000Y-96500000D01*
G36*
X146500000Y-96500000D02*
G01*
X153500000Y-96500000D01*
X153500000Y-103500000D01*
X146500000Y-103500000D01*
X146500000Y-96500000D01*
G37*
X140000000Y-90000000D02*
X160000000Y-90000000D01*
X160000000Y-110000000D01*
X140000000Y-110000000D01*
X140000000Y-90000000D01*
X96500000Y-96500000D02*
X103500000Y-96500000D01*
X103500000Y-103500000D01*
X96500000Y-103500000D01*
X96500000Y-96500000D01*
G36*
X96500000Y-96500000D02*
G01*
X103500000Y-96500000D01*
X103500000Y-103500000D01*
X96500000Y-103500000D01*
X96500000Y-96500000D01*
G37*
X115000000Y-90000000D02*
X135000000Y-90000000D01*
X135000000Y-110000000D01*
X115000000Y-110000000D01*
X115000000Y-90000000D01*
X171500000Y-96500000D02*
X178500000Y-96500000D01*
X178500000Y-103500000D01*
X171500000Y-103500000D01*
X171500000Y-96500000D01*
G36*
X171500000Y-96500000D02*
G01*
X178500000Y-96500000D01*
X178500000Y-103500000D01*
X171500000Y-103500000D01*
X171500000Y-96500000D01*
G37*
X121500000Y-96500000D02*
X128500000Y-96500000D01*
X128500000Y-103500000D01*
X121500000Y-103500000D01*
X121500000Y-96500000D01*
G36*
X121500000Y-96500000D02*
G01*
X128500000Y-96500000D01*
X128500000Y-103500000D01*
X121500000Y-103500000D01*
X121500000Y-96500000D01*
G37*
X165000000Y-90000000D02*
X185000000Y-90000000D01*
X185000000Y-110000000D01*
X165000000Y-110000000D01*
X165000000Y-90000000D01*
D11*
X166663220Y-88869819D02*
X166663220Y-87869819D01*
X166663220Y-87869819D02*
X166425125Y-87869819D01*
X166425125Y-87869819D02*
X166282268Y-87917438D01*
X166282268Y-87917438D02*
X166187030Y-88012676D01*
X166187030Y-88012676D02*
X166139411Y-88107914D01*
X166139411Y-88107914D02*
X166091792Y-88298390D01*
X166091792Y-88298390D02*
X166091792Y-88441247D01*
X166091792Y-88441247D02*
X166139411Y-88631723D01*
X166139411Y-88631723D02*
X166187030Y-88726961D01*
X166187030Y-88726961D02*
X166282268Y-88822200D01*
X166282268Y-88822200D02*
X166425125Y-88869819D01*
X166425125Y-88869819D02*
X166663220Y-88869819D01*
X165234649Y-88203152D02*
X165234649Y-88869819D01*
X165472744Y-87822200D02*
X165710839Y-88536485D01*
X165710839Y-88536485D02*
X165091792Y-88536485D01*
X141663220Y-88869819D02*
X141663220Y-87869819D01*
X141663220Y-87869819D02*
X141425125Y-87869819D01*
X141425125Y-87869819D02*
X141282268Y-87917438D01*
X141282268Y-87917438D02*
X141187030Y-88012676D01*
X141187030Y-88012676D02*
X141139411Y-88107914D01*
X141139411Y-88107914D02*
X141091792Y-88298390D01*
X141091792Y-88298390D02*
X141091792Y-88441247D01*
X141091792Y-88441247D02*
X141139411Y-88631723D01*
X141139411Y-88631723D02*
X141187030Y-88726961D01*
X141187030Y-88726961D02*
X141282268Y-88822200D01*
X141282268Y-88822200D02*
X141425125Y-88869819D01*
X141425125Y-88869819D02*
X141663220Y-88869819D01*
X140758458Y-87869819D02*
X140139411Y-87869819D01*
X140139411Y-87869819D02*
X140472744Y-88250771D01*
X140472744Y-88250771D02*
X140329887Y-88250771D01*
X140329887Y-88250771D02*
X140234649Y-88298390D01*
X140234649Y-88298390D02*
X140187030Y-88346009D01*
X140187030Y-88346009D02*
X140139411Y-88441247D01*
X140139411Y-88441247D02*
X140139411Y-88679342D01*
X140139411Y-88679342D02*
X140187030Y-88774580D01*
X140187030Y-88774580D02*
X140234649Y-88822200D01*
X140234649Y-88822200D02*
X140329887Y-88869819D01*
X140329887Y-88869819D02*
X140615601Y-88869819D01*
X140615601Y-88869819D02*
X140710839Y-88822200D01*
X140710839Y-88822200D02*
X140758458Y-88774580D01*
X116663220Y-88869819D02*
X116663220Y-87869819D01*
X116663220Y-87869819D02*
X116425125Y-87869819D01*
X116425125Y-87869819D02*
X116282268Y-87917438D01*
X116282268Y-87917438D02*
X116187030Y-88012676D01*
X116187030Y-88012676D02*
X116139411Y-88107914D01*
X116139411Y-88107914D02*
X116091792Y-88298390D01*
X116091792Y-88298390D02*
X116091792Y-88441247D01*
X116091792Y-88441247D02*
X116139411Y-88631723D01*
X116139411Y-88631723D02*
X116187030Y-88726961D01*
X116187030Y-88726961D02*
X116282268Y-88822200D01*
X116282268Y-88822200D02*
X116425125Y-88869819D01*
X116425125Y-88869819D02*
X116663220Y-88869819D01*
X115710839Y-87965057D02*
X115663220Y-87917438D01*
X115663220Y-87917438D02*
X115567982Y-87869819D01*
X115567982Y-87869819D02*
X115329887Y-87869819D01*
X115329887Y-87869819D02*
X115234649Y-87917438D01*
X115234649Y-87917438D02*
X115187030Y-87965057D01*
X115187030Y-87965057D02*
X115139411Y-88060295D01*
X115139411Y-88060295D02*
X115139411Y-88155533D01*
X115139411Y-88155533D02*
X115187030Y-88298390D01*
X115187030Y-88298390D02*
X115758458Y-88869819D01*
X115758458Y-88869819D02*
X115139411Y-88869819D01*
X91663220Y-88869819D02*
X91663220Y-87869819D01*
X91663220Y-87869819D02*
X91425125Y-87869819D01*
X91425125Y-87869819D02*
X91282268Y-87917438D01*
X91282268Y-87917438D02*
X91187030Y-88012676D01*
X91187030Y-88012676D02*
X91139411Y-88107914D01*
X91139411Y-88107914D02*
X91091792Y-88298390D01*
X91091792Y-88298390D02*
X91091792Y-88441247D01*
X91091792Y-88441247D02*
X91139411Y-88631723D01*
X91139411Y-88631723D02*
X91187030Y-88726961D01*
X91187030Y-88726961D02*
X91282268Y-88822200D01*
X91282268Y-88822200D02*
X91425125Y-88869819D01*
X91425125Y-88869819D02*
X91663220Y-88869819D01*
X90139411Y-88869819D02*
X90710839Y-88869819D01*
X90425125Y-88869819D02*
X90425125Y-87869819D01*
X90425125Y-87869819D02*
X90520363Y-88012676D01*
X90520363Y-88012676D02*
X90615601Y-88107914D01*
X90615601Y-88107914D02*
X90710839Y-88155533D01*
X77833333Y-86454819D02*
X77833333Y-87169104D01*
X77833333Y-87169104D02*
X77880952Y-87311961D01*
X77880952Y-87311961D02*
X77976190Y-87407200D01*
X77976190Y-87407200D02*
X78119047Y-87454819D01*
X78119047Y-87454819D02*
X78214285Y-87454819D01*
X76880952Y-86454819D02*
X77357142Y-86454819D01*
X77357142Y-86454819D02*
X77404761Y-86931009D01*
X77404761Y-86931009D02*
X77357142Y-86883390D01*
X77357142Y-86883390D02*
X77261904Y-86835771D01*
X77261904Y-86835771D02*
X77023809Y-86835771D01*
X77023809Y-86835771D02*
X76928571Y-86883390D01*
X76928571Y-86883390D02*
X76880952Y-86931009D01*
X76880952Y-86931009D02*
X76833333Y-87026247D01*
X76833333Y-87026247D02*
X76833333Y-87264342D01*
X76833333Y-87264342D02*
X76880952Y-87359580D01*
X76880952Y-87359580D02*
X76928571Y-87407200D01*
X76928571Y-87407200D02*
X77023809Y-87454819D01*
X77023809Y-87454819D02*
X77261904Y-87454819D01*
X77261904Y-87454819D02*
X77357142Y-87407200D01*
X77357142Y-87407200D02*
X77404761Y-87359580D01*
X191809523Y-117184819D02*
X191809523Y-117899104D01*
X191809523Y-117899104D02*
X191857142Y-118041961D01*
X191857142Y-118041961D02*
X191952380Y-118137200D01*
X191952380Y-118137200D02*
X192095237Y-118184819D01*
X192095237Y-118184819D02*
X192190475Y-118184819D01*
X190809523Y-118184819D02*
X191380951Y-118184819D01*
X191095237Y-118184819D02*
X191095237Y-117184819D01*
X191095237Y-117184819D02*
X191190475Y-117327676D01*
X191190475Y-117327676D02*
X191285713Y-117422914D01*
X191285713Y-117422914D02*
X191380951Y-117470533D01*
X190428570Y-117280057D02*
X190380951Y-117232438D01*
X190380951Y-117232438D02*
X190285713Y-117184819D01*
X190285713Y-117184819D02*
X190047618Y-117184819D01*
X190047618Y-117184819D02*
X189952380Y-117232438D01*
X189952380Y-117232438D02*
X189904761Y-117280057D01*
X189904761Y-117280057D02*
X189857142Y-117375295D01*
X189857142Y-117375295D02*
X189857142Y-117470533D01*
X189857142Y-117470533D02*
X189904761Y-117613390D01*
X189904761Y-117613390D02*
X190476189Y-118184819D01*
X190476189Y-118184819D02*
X189857142Y-118184819D01*
X191333333Y-83184819D02*
X191333333Y-83899104D01*
X191333333Y-83899104D02*
X191380952Y-84041961D01*
X191380952Y-84041961D02*
X191476190Y-84137200D01*
X191476190Y-84137200D02*
X191619047Y-84184819D01*
X191619047Y-84184819D02*
X191714285Y-84184819D01*
X190333333Y-84184819D02*
X190904761Y-84184819D01*
X190619047Y-84184819D02*
X190619047Y-83184819D01*
X190619047Y-83184819D02*
X190714285Y-83327676D01*
X190714285Y-83327676D02*
X190809523Y-83422914D01*
X190809523Y-83422914D02*
X190904761Y-83470533D01*
X77833333Y-113454819D02*
X77833333Y-114169104D01*
X77833333Y-114169104D02*
X77880952Y-114311961D01*
X77880952Y-114311961D02*
X77976190Y-114407200D01*
X77976190Y-114407200D02*
X78119047Y-114454819D01*
X78119047Y-114454819D02*
X78214285Y-114454819D01*
X77309523Y-114454819D02*
X77119047Y-114454819D01*
X77119047Y-114454819D02*
X77023809Y-114407200D01*
X77023809Y-114407200D02*
X76976190Y-114359580D01*
X76976190Y-114359580D02*
X76880952Y-114216723D01*
X76880952Y-114216723D02*
X76833333Y-114026247D01*
X76833333Y-114026247D02*
X76833333Y-113645295D01*
X76833333Y-113645295D02*
X76880952Y-113550057D01*
X76880952Y-113550057D02*
X76928571Y-113502438D01*
X76928571Y-113502438D02*
X77023809Y-113454819D01*
X77023809Y-113454819D02*
X77214285Y-113454819D01*
X77214285Y-113454819D02*
X77309523Y-113502438D01*
X77309523Y-113502438D02*
X77357142Y-113550057D01*
X77357142Y-113550057D02*
X77404761Y-113645295D01*
X77404761Y-113645295D02*
X77404761Y-113883390D01*
X77404761Y-113883390D02*
X77357142Y-113978628D01*
X77357142Y-113978628D02*
X77309523Y-114026247D01*
X77309523Y-114026247D02*
X77214285Y-114073866D01*
X77214285Y-114073866D02*
X77023809Y-114073866D01*
X77023809Y-114073866D02*
X76928571Y-114026247D01*
X76928571Y-114026247D02*
X76880952Y-113978628D01*
X76880952Y-113978628D02*
X76833333Y-113883390D01*
D12*
X81330000Y-85870000D02*
X80000000Y-85870000D01*
X81330000Y-84540000D02*
X81330000Y-85870000D01*
X81330000Y-83270000D02*
X78730000Y-83270000D01*
X81330000Y-80670000D02*
X81330000Y-83270000D01*
X78730000Y-83270000D02*
X78730000Y-85870000D01*
X73590000Y-85870000D02*
X78730000Y-85870000D01*
X73590000Y-80670000D02*
X81330000Y-80670000D01*
X73590000Y-80670000D02*
X73590000Y-85870000D01*
X199870000Y-120330000D02*
X198540000Y-120330000D01*
X199870000Y-119000000D02*
X199870000Y-120330000D01*
X199870000Y-117730000D02*
X197270000Y-117730000D01*
X199870000Y-115130000D02*
X199870000Y-117730000D01*
X197270000Y-117730000D02*
X197270000Y-120330000D01*
X192130000Y-120330000D02*
X197270000Y-120330000D01*
X192130000Y-115130000D02*
X199870000Y-115130000D01*
X192130000Y-115130000D02*
X192130000Y-120330000D01*
X199870000Y-86330000D02*
X198540000Y-86330000D01*
X199870000Y-85000000D02*
X199870000Y-86330000D01*
X199870000Y-83730000D02*
X197270000Y-83730000D01*
X199870000Y-81130000D02*
X199870000Y-83730000D01*
X197270000Y-83730000D02*
X197270000Y-86330000D01*
X192130000Y-86330000D02*
X197270000Y-86330000D01*
X192130000Y-81130000D02*
X199870000Y-81130000D01*
X192130000Y-81130000D02*
X192130000Y-86330000D01*
X81330000Y-120330000D02*
X80000000Y-120330000D01*
X81330000Y-119000000D02*
X81330000Y-120330000D01*
X81330000Y-117730000D02*
X78730000Y-117730000D01*
X81330000Y-115130000D02*
X81330000Y-117730000D01*
X78730000Y-117730000D02*
X78730000Y-120330000D01*
X73590000Y-120330000D02*
X78730000Y-120330000D01*
X73590000Y-115130000D02*
X81330000Y-115130000D01*
X73590000Y-115130000D02*
X73590000Y-120330000D01*
%LPC*%
D13*
X197250000Y-112250000D03*
X197250000Y-89500000D03*
X84500000Y-117750000D03*
X84500000Y-83250000D03*
X170500000Y-115000000D03*
X179500000Y-85000000D03*
X145500000Y-115000000D03*
X154500000Y-85000000D03*
X120500000Y-115000000D03*
X129500000Y-85000000D03*
X95500000Y-115000000D03*
X104500000Y-85000000D03*
D14*
X74920000Y-82000000D03*
X77460000Y-82000000D03*
X80000000Y-82000000D03*
X74920000Y-84540000D03*
X77460000Y-84540000D03*
D15*
X80000000Y-84540000D03*
D14*
X193460000Y-116460000D03*
X196000000Y-116460000D03*
X198540000Y-116460000D03*
X193460000Y-119000000D03*
X196000000Y-119000000D03*
D15*
X198540000Y-119000000D03*
D14*
X193460000Y-82460000D03*
X196000000Y-82460000D03*
X198540000Y-82460000D03*
X193460000Y-85000000D03*
X196000000Y-85000000D03*
D15*
X198540000Y-85000000D03*
D14*
X74920000Y-116460000D03*
X77460000Y-116460000D03*
X80000000Y-116460000D03*
X74920000Y-119000000D03*
X77460000Y-119000000D03*
D15*
X80000000Y-119000000D03*
%LPD*%
M02*
