%TF.GenerationSoftware,KiCad,Pcbnew,8.0.7-8.0.7-0~ubuntu22.04.1*%
%TF.CreationDate,2025-03-20T12:44:07-04:00*%
%TF.ProjectId,trigger,74726967-6765-4722-9e6b-696361645f70,rev?*%
%TF.SameCoordinates,Original*%
%TF.FileFunction,Drillmap*%
%TF.FilePolarity,Positive*%
%FSLAX45Y45*%
G04 Gerber Fmt 4.5, Leading zero omitted, Abs format (unit mm)*
G04 Created by KiCad (PCBNEW 8.0.7-8.0.7-0~ubuntu22.04.1) date 2025-03-20 12:44:07*
%MOMM*%
%LPD*%
G01*
G04 APERTURE LIST*
%ADD10C,0.050000*%
%ADD11C,0.200000*%
%ADD12C,0.100000*%
%ADD13C,0.320000*%
G04 APERTURE END LIST*
D10*
X7250000Y-7950000D02*
X20100000Y-7950000D01*
X20100000Y-12150000D01*
X7250000Y-12150000D01*
X7250000Y-7950000D01*
D11*
D12*
X7362500Y-9677500D02*
X7392500Y-9707500D01*
X7392500Y-9677500D02*
X7362500Y-9707500D01*
X7485000Y-8735000D02*
X7515000Y-8765000D01*
X7515000Y-8735000D02*
X7485000Y-8765000D01*
X7485000Y-8985000D02*
X7515000Y-9015000D01*
X7515000Y-8985000D02*
X7485000Y-9015000D01*
X7485000Y-9235000D02*
X7515000Y-9265000D01*
X7515000Y-9235000D02*
X7485000Y-9265000D01*
X7485000Y-11085000D02*
X7515000Y-11115000D01*
X7515000Y-11085000D02*
X7485000Y-11115000D01*
X7485000Y-11285000D02*
X7515000Y-11315000D01*
X7515000Y-11285000D02*
X7485000Y-11315000D01*
X7595000Y-10410000D02*
X7625000Y-10440000D01*
X7625000Y-10410000D02*
X7595000Y-10440000D01*
X7605000Y-10590000D02*
X7635000Y-10620000D01*
X7635000Y-10590000D02*
X7605000Y-10620000D01*
X7605000Y-10845000D02*
X7635000Y-10875000D01*
X7635000Y-10845000D02*
X7605000Y-10875000D01*
X7685000Y-11285000D02*
X7715000Y-11315000D01*
X7715000Y-11285000D02*
X7685000Y-11315000D01*
X7725000Y-10205000D02*
X7755000Y-10235000D01*
X7755000Y-10205000D02*
X7725000Y-10235000D01*
X7740000Y-9542500D02*
X7770000Y-9572500D01*
X7770000Y-9542500D02*
X7740000Y-9572500D01*
X7860000Y-9907500D02*
X7890000Y-9937500D01*
X7890000Y-9907500D02*
X7860000Y-9937500D01*
X7955000Y-9470000D02*
X7985000Y-9500000D01*
X7985000Y-9470000D02*
X7955000Y-9500000D01*
X8050000Y-9812500D02*
X8080000Y-9842500D01*
X8080000Y-9812500D02*
X8050000Y-9842500D01*
X8210000Y-9495000D02*
X8240000Y-9525000D01*
X8240000Y-9495000D02*
X8210000Y-9525000D01*
X8285000Y-10385000D02*
X8315000Y-10415000D01*
X8315000Y-10385000D02*
X8285000Y-10415000D01*
X8335000Y-11060000D02*
X8365000Y-11090000D01*
X8365000Y-11060000D02*
X8335000Y-11090000D01*
X8360000Y-11355000D02*
X8390000Y-11385000D01*
X8390000Y-11355000D02*
X8360000Y-11385000D01*
X8607500Y-9505000D02*
X8637500Y-9535000D01*
X8637500Y-9505000D02*
X8607500Y-9535000D01*
X8730000Y-10632500D02*
X8760000Y-10662500D01*
X8760000Y-10632500D02*
X8730000Y-10662500D01*
X8735000Y-9235000D02*
X8765000Y-9265000D01*
X8765000Y-9235000D02*
X8735000Y-9265000D01*
X8735000Y-9735000D02*
X8765000Y-9765000D01*
X8765000Y-9735000D02*
X8735000Y-9765000D01*
X8985000Y-8485000D02*
X9015000Y-8515000D01*
X9015000Y-8485000D02*
X8985000Y-8515000D01*
X8985000Y-11485000D02*
X9015000Y-11515000D01*
X9015000Y-11485000D02*
X8985000Y-11515000D01*
X9035000Y-9585000D02*
X9065000Y-9615000D01*
X9065000Y-9585000D02*
X9035000Y-9615000D01*
X9035000Y-9735000D02*
X9065000Y-9765000D01*
X9065000Y-9735000D02*
X9035000Y-9765000D01*
X9110000Y-9585000D02*
X9140000Y-9615000D01*
X9140000Y-9585000D02*
X9110000Y-9615000D01*
X9110000Y-9735000D02*
X9140000Y-9765000D01*
X9140000Y-9735000D02*
X9110000Y-9765000D01*
X9185000Y-9585000D02*
X9215000Y-9615000D01*
X9215000Y-9585000D02*
X9185000Y-9615000D01*
X9185000Y-9735000D02*
X9215000Y-9765000D01*
X9215000Y-9735000D02*
X9185000Y-9765000D01*
X9235000Y-9235000D02*
X9265000Y-9265000D01*
X9265000Y-9235000D02*
X9235000Y-9265000D01*
X9235000Y-10735000D02*
X9265000Y-10765000D01*
X9265000Y-10735000D02*
X9235000Y-10765000D01*
X9260000Y-9585000D02*
X9290000Y-9615000D01*
X9290000Y-9585000D02*
X9260000Y-9615000D01*
X9260000Y-9735000D02*
X9290000Y-9765000D01*
X9290000Y-9735000D02*
X9260000Y-9765000D01*
X9335000Y-9585000D02*
X9365000Y-9615000D01*
X9365000Y-9585000D02*
X9335000Y-9615000D01*
X9335000Y-9735000D02*
X9365000Y-9765000D01*
X9365000Y-9735000D02*
X9335000Y-9765000D01*
X9410000Y-9585000D02*
X9440000Y-9615000D01*
X9440000Y-9585000D02*
X9410000Y-9615000D01*
X9410000Y-9735000D02*
X9440000Y-9765000D01*
X9440000Y-9735000D02*
X9410000Y-9765000D01*
X9485000Y-8485000D02*
X9515000Y-8515000D01*
X9515000Y-8485000D02*
X9485000Y-8515000D01*
X9485000Y-9485000D02*
X9515000Y-9515000D01*
X9515000Y-9485000D02*
X9485000Y-9515000D01*
X9485000Y-9585000D02*
X9515000Y-9615000D01*
X9515000Y-9585000D02*
X9485000Y-9615000D01*
X9485000Y-9735000D02*
X9515000Y-9765000D01*
X9515000Y-9735000D02*
X9485000Y-9765000D01*
X9485000Y-10485000D02*
X9515000Y-10515000D01*
X9515000Y-10485000D02*
X9485000Y-10515000D01*
X9685000Y-9835000D02*
X9715000Y-9865000D01*
X9715000Y-9835000D02*
X9685000Y-9865000D01*
X9835000Y-9685000D02*
X9865000Y-9715000D01*
X9865000Y-9685000D02*
X9835000Y-9715000D01*
X9835000Y-9835000D02*
X9865000Y-9865000D01*
X9865000Y-9835000D02*
X9835000Y-9865000D01*
X9985000Y-8485000D02*
X10015000Y-8515000D01*
X10015000Y-8485000D02*
X9985000Y-8515000D01*
X9985000Y-9985000D02*
X10015000Y-10015000D01*
X10015000Y-9985000D02*
X9985000Y-10015000D01*
X9985000Y-11485000D02*
X10015000Y-11515000D01*
X10015000Y-11485000D02*
X9985000Y-11515000D01*
X9985000Y-11785000D02*
X10015000Y-11815000D01*
X10015000Y-11785000D02*
X9985000Y-11815000D01*
X10135000Y-10285000D02*
X10165000Y-10315000D01*
X10165000Y-10285000D02*
X10135000Y-10315000D01*
X10237500Y-10460000D02*
X10267500Y-10490000D01*
X10267500Y-10460000D02*
X10237500Y-10490000D01*
X10237500Y-10535000D02*
X10267500Y-10565000D01*
X10267500Y-10535000D02*
X10237500Y-10565000D01*
X10237500Y-10610000D02*
X10267500Y-10640000D01*
X10267500Y-10610000D02*
X10237500Y-10640000D01*
X10237500Y-10685000D02*
X10267500Y-10715000D01*
X10267500Y-10685000D02*
X10237500Y-10715000D01*
X10237500Y-10760000D02*
X10267500Y-10790000D01*
X10267500Y-10760000D02*
X10237500Y-10790000D01*
X10237500Y-10835000D02*
X10267500Y-10865000D01*
X10267500Y-10835000D02*
X10237500Y-10865000D01*
X10237500Y-10910000D02*
X10267500Y-10940000D01*
X10267500Y-10910000D02*
X10237500Y-10940000D01*
X10285000Y-10135000D02*
X10315000Y-10165000D01*
X10315000Y-10135000D02*
X10285000Y-10165000D01*
X10385000Y-10460000D02*
X10415000Y-10490000D01*
X10415000Y-10460000D02*
X10385000Y-10490000D01*
X10385000Y-10535000D02*
X10415000Y-10565000D01*
X10415000Y-10535000D02*
X10385000Y-10565000D01*
X10385000Y-10610000D02*
X10415000Y-10640000D01*
X10415000Y-10610000D02*
X10385000Y-10640000D01*
X10385000Y-10685000D02*
X10415000Y-10715000D01*
X10415000Y-10685000D02*
X10385000Y-10715000D01*
X10385000Y-10760000D02*
X10415000Y-10790000D01*
X10415000Y-10760000D02*
X10385000Y-10790000D01*
X10385000Y-10835000D02*
X10415000Y-10865000D01*
X10415000Y-10835000D02*
X10385000Y-10865000D01*
X10385000Y-10910000D02*
X10415000Y-10940000D01*
X10415000Y-10910000D02*
X10385000Y-10940000D01*
X10485000Y-9485000D02*
X10515000Y-9515000D01*
X10515000Y-9485000D02*
X10485000Y-9515000D01*
X10485000Y-10485000D02*
X10515000Y-10515000D01*
X10515000Y-10485000D02*
X10485000Y-10515000D01*
X10485000Y-11735000D02*
X10515000Y-11765000D01*
X10515000Y-11735000D02*
X10485000Y-11765000D01*
X10635000Y-11452300D02*
X10665000Y-11482300D01*
X10665000Y-11452300D02*
X10635000Y-11482300D01*
X10735000Y-9235000D02*
X10765000Y-9265000D01*
X10765000Y-9235000D02*
X10735000Y-9265000D01*
X10735000Y-10735000D02*
X10765000Y-10765000D01*
X10765000Y-10735000D02*
X10735000Y-10765000D01*
X10875000Y-11155000D02*
X10905000Y-11185000D01*
X10905000Y-11155000D02*
X10875000Y-11185000D01*
X10945000Y-11515000D02*
X10975000Y-11545000D01*
X10975000Y-11515000D02*
X10945000Y-11545000D01*
X10985000Y-10885000D02*
X11015000Y-10915000D01*
X11015000Y-10885000D02*
X10985000Y-10915000D01*
X11045000Y-11340000D02*
X11075000Y-11370000D01*
X11075000Y-11340000D02*
X11045000Y-11370000D01*
X11235000Y-9235000D02*
X11265000Y-9265000D01*
X11265000Y-9235000D02*
X11235000Y-9265000D01*
X11235000Y-9735000D02*
X11265000Y-9765000D01*
X11265000Y-9735000D02*
X11235000Y-9765000D01*
X11235000Y-10485000D02*
X11265000Y-10515000D01*
X11265000Y-10485000D02*
X11235000Y-10515000D01*
X11485000Y-8485000D02*
X11515000Y-8515000D01*
X11515000Y-8485000D02*
X11485000Y-8515000D01*
X11535000Y-9585000D02*
X11565000Y-9615000D01*
X11565000Y-9585000D02*
X11535000Y-9615000D01*
X11535000Y-9735000D02*
X11565000Y-9765000D01*
X11565000Y-9735000D02*
X11535000Y-9765000D01*
X11555000Y-11022300D02*
X11585000Y-11052300D01*
X11585000Y-11022300D02*
X11555000Y-11052300D01*
X11610000Y-9585000D02*
X11640000Y-9615000D01*
X11640000Y-9585000D02*
X11610000Y-9615000D01*
X11610000Y-9735000D02*
X11640000Y-9765000D01*
X11640000Y-9735000D02*
X11610000Y-9765000D01*
X11685000Y-9585000D02*
X11715000Y-9615000D01*
X11715000Y-9585000D02*
X11685000Y-9615000D01*
X11685000Y-9735000D02*
X11715000Y-9765000D01*
X11715000Y-9735000D02*
X11685000Y-9765000D01*
X11735000Y-9235000D02*
X11765000Y-9265000D01*
X11765000Y-9235000D02*
X11735000Y-9265000D01*
X11735000Y-10735000D02*
X11765000Y-10765000D01*
X11765000Y-10735000D02*
X11735000Y-10765000D01*
X11760000Y-9585000D02*
X11790000Y-9615000D01*
X11790000Y-9585000D02*
X11760000Y-9615000D01*
X11760000Y-9735000D02*
X11790000Y-9765000D01*
X11790000Y-9735000D02*
X11760000Y-9765000D01*
X11835000Y-9585000D02*
X11865000Y-9615000D01*
X11865000Y-9585000D02*
X11835000Y-9615000D01*
X11835000Y-9735000D02*
X11865000Y-9765000D01*
X11865000Y-9735000D02*
X11835000Y-9765000D01*
X11910000Y-9585000D02*
X11940000Y-9615000D01*
X11940000Y-9585000D02*
X11910000Y-9615000D01*
X11910000Y-9735000D02*
X11940000Y-9765000D01*
X11940000Y-9735000D02*
X11910000Y-9765000D01*
X11985000Y-8485000D02*
X12015000Y-8515000D01*
X12015000Y-8485000D02*
X11985000Y-8515000D01*
X11985000Y-9485000D02*
X12015000Y-9515000D01*
X12015000Y-9485000D02*
X11985000Y-9515000D01*
X11985000Y-9585000D02*
X12015000Y-9615000D01*
X12015000Y-9585000D02*
X11985000Y-9615000D01*
X11985000Y-9735000D02*
X12015000Y-9765000D01*
X12015000Y-9735000D02*
X11985000Y-9765000D01*
X11985000Y-10485000D02*
X12015000Y-10515000D01*
X12015000Y-10485000D02*
X11985000Y-10515000D01*
X12185000Y-9835000D02*
X12215000Y-9865000D01*
X12215000Y-9835000D02*
X12185000Y-9865000D01*
X12335000Y-9685000D02*
X12365000Y-9715000D01*
X12365000Y-9685000D02*
X12335000Y-9715000D01*
X12335000Y-9835000D02*
X12365000Y-9865000D01*
X12365000Y-9835000D02*
X12335000Y-9865000D01*
X12485000Y-9985000D02*
X12515000Y-10015000D01*
X12515000Y-9985000D02*
X12485000Y-10015000D01*
X12485000Y-11485000D02*
X12515000Y-11515000D01*
X12515000Y-11485000D02*
X12485000Y-11515000D01*
X12485000Y-11785000D02*
X12515000Y-11815000D01*
X12515000Y-11785000D02*
X12485000Y-11815000D01*
X12635000Y-10285000D02*
X12665000Y-10315000D01*
X12665000Y-10285000D02*
X12635000Y-10315000D01*
X12737500Y-10460000D02*
X12767500Y-10490000D01*
X12767500Y-10460000D02*
X12737500Y-10490000D01*
X12737500Y-10535000D02*
X12767500Y-10565000D01*
X12767500Y-10535000D02*
X12737500Y-10565000D01*
X12737500Y-10610000D02*
X12767500Y-10640000D01*
X12767500Y-10610000D02*
X12737500Y-10640000D01*
X12737500Y-10685000D02*
X12767500Y-10715000D01*
X12767500Y-10685000D02*
X12737500Y-10715000D01*
X12737500Y-10760000D02*
X12767500Y-10790000D01*
X12767500Y-10760000D02*
X12737500Y-10790000D01*
X12737500Y-10835000D02*
X12767500Y-10865000D01*
X12767500Y-10835000D02*
X12737500Y-10865000D01*
X12737500Y-10910000D02*
X12767500Y-10940000D01*
X12767500Y-10910000D02*
X12737500Y-10940000D01*
X12785000Y-10135000D02*
X12815000Y-10165000D01*
X12815000Y-10135000D02*
X12785000Y-10165000D01*
X12885000Y-10460000D02*
X12915000Y-10490000D01*
X12915000Y-10460000D02*
X12885000Y-10490000D01*
X12885000Y-10535000D02*
X12915000Y-10565000D01*
X12915000Y-10535000D02*
X12885000Y-10565000D01*
X12885000Y-10610000D02*
X12915000Y-10640000D01*
X12915000Y-10610000D02*
X12885000Y-10640000D01*
X12885000Y-10685000D02*
X12915000Y-10715000D01*
X12915000Y-10685000D02*
X12885000Y-10715000D01*
X12885000Y-10760000D02*
X12915000Y-10790000D01*
X12915000Y-10760000D02*
X12885000Y-10790000D01*
X12885000Y-10835000D02*
X12915000Y-10865000D01*
X12915000Y-10835000D02*
X12885000Y-10865000D01*
X12885000Y-10910000D02*
X12915000Y-10940000D01*
X12915000Y-10910000D02*
X12885000Y-10940000D01*
X12985000Y-9485000D02*
X13015000Y-9515000D01*
X13015000Y-9485000D02*
X12985000Y-9515000D01*
X12985000Y-10485000D02*
X13015000Y-10515000D01*
X13015000Y-10485000D02*
X12985000Y-10515000D01*
X12985000Y-11735000D02*
X13015000Y-11765000D01*
X13015000Y-11735000D02*
X12985000Y-11765000D01*
X13135000Y-11452300D02*
X13165000Y-11482300D01*
X13165000Y-11452300D02*
X13135000Y-11482300D01*
X13235000Y-9235000D02*
X13265000Y-9265000D01*
X13265000Y-9235000D02*
X13235000Y-9265000D01*
X13235000Y-10735000D02*
X13265000Y-10765000D01*
X13265000Y-10735000D02*
X13235000Y-10765000D01*
X13375000Y-11157500D02*
X13405000Y-11187500D01*
X13405000Y-11157500D02*
X13375000Y-11187500D01*
X13445000Y-11515000D02*
X13475000Y-11545000D01*
X13475000Y-11515000D02*
X13445000Y-11545000D01*
X13485000Y-10885000D02*
X13515000Y-10915000D01*
X13515000Y-10885000D02*
X13485000Y-10915000D01*
X13545000Y-11340000D02*
X13575000Y-11370000D01*
X13575000Y-11340000D02*
X13545000Y-11370000D01*
X13735000Y-9235000D02*
X13765000Y-9265000D01*
X13765000Y-9235000D02*
X13735000Y-9265000D01*
X13735000Y-9735000D02*
X13765000Y-9765000D01*
X13765000Y-9735000D02*
X13735000Y-9765000D01*
X13735000Y-10485000D02*
X13765000Y-10515000D01*
X13765000Y-10485000D02*
X13735000Y-10515000D01*
X13985000Y-8485000D02*
X14015000Y-8515000D01*
X14015000Y-8485000D02*
X13985000Y-8515000D01*
X14035000Y-9585000D02*
X14065000Y-9615000D01*
X14065000Y-9585000D02*
X14035000Y-9615000D01*
X14035000Y-9735000D02*
X14065000Y-9765000D01*
X14065000Y-9735000D02*
X14035000Y-9765000D01*
X14055000Y-11022300D02*
X14085000Y-11052300D01*
X14085000Y-11022300D02*
X14055000Y-11052300D01*
X14110000Y-9585000D02*
X14140000Y-9615000D01*
X14140000Y-9585000D02*
X14110000Y-9615000D01*
X14110000Y-9735000D02*
X14140000Y-9765000D01*
X14140000Y-9735000D02*
X14110000Y-9765000D01*
X14185000Y-9585000D02*
X14215000Y-9615000D01*
X14215000Y-9585000D02*
X14185000Y-9615000D01*
X14185000Y-9735000D02*
X14215000Y-9765000D01*
X14215000Y-9735000D02*
X14185000Y-9765000D01*
X14235000Y-9235000D02*
X14265000Y-9265000D01*
X14265000Y-9235000D02*
X14235000Y-9265000D01*
X14235000Y-10735000D02*
X14265000Y-10765000D01*
X14265000Y-10735000D02*
X14235000Y-10765000D01*
X14260000Y-9585000D02*
X14290000Y-9615000D01*
X14290000Y-9585000D02*
X14260000Y-9615000D01*
X14260000Y-9735000D02*
X14290000Y-9765000D01*
X14290000Y-9735000D02*
X14260000Y-9765000D01*
X14335000Y-9585000D02*
X14365000Y-9615000D01*
X14365000Y-9585000D02*
X14335000Y-9615000D01*
X14335000Y-9735000D02*
X14365000Y-9765000D01*
X14365000Y-9735000D02*
X14335000Y-9765000D01*
X14410000Y-9585000D02*
X14440000Y-9615000D01*
X14440000Y-9585000D02*
X14410000Y-9615000D01*
X14410000Y-9735000D02*
X14440000Y-9765000D01*
X14440000Y-9735000D02*
X14410000Y-9765000D01*
X14485000Y-8485000D02*
X14515000Y-8515000D01*
X14515000Y-8485000D02*
X14485000Y-8515000D01*
X14485000Y-9485000D02*
X14515000Y-9515000D01*
X14515000Y-9485000D02*
X14485000Y-9515000D01*
X14485000Y-9585000D02*
X14515000Y-9615000D01*
X14515000Y-9585000D02*
X14485000Y-9615000D01*
X14485000Y-9735000D02*
X14515000Y-9765000D01*
X14515000Y-9735000D02*
X14485000Y-9765000D01*
X14485000Y-10485000D02*
X14515000Y-10515000D01*
X14515000Y-10485000D02*
X14485000Y-10515000D01*
X14685000Y-9835000D02*
X14715000Y-9865000D01*
X14715000Y-9835000D02*
X14685000Y-9865000D01*
X14835000Y-9685000D02*
X14865000Y-9715000D01*
X14865000Y-9685000D02*
X14835000Y-9715000D01*
X14835000Y-9835000D02*
X14865000Y-9865000D01*
X14865000Y-9835000D02*
X14835000Y-9865000D01*
X14985000Y-9985000D02*
X15015000Y-10015000D01*
X15015000Y-9985000D02*
X14985000Y-10015000D01*
X14985000Y-11485000D02*
X15015000Y-11515000D01*
X15015000Y-11485000D02*
X14985000Y-11515000D01*
X14985000Y-11785000D02*
X15015000Y-11815000D01*
X15015000Y-11785000D02*
X14985000Y-11815000D01*
X15135000Y-10285000D02*
X15165000Y-10315000D01*
X15165000Y-10285000D02*
X15135000Y-10315000D01*
X15240000Y-10460000D02*
X15270000Y-10490000D01*
X15270000Y-10460000D02*
X15240000Y-10490000D01*
X15240000Y-10535000D02*
X15270000Y-10565000D01*
X15270000Y-10535000D02*
X15240000Y-10565000D01*
X15240000Y-10610000D02*
X15270000Y-10640000D01*
X15270000Y-10610000D02*
X15240000Y-10640000D01*
X15240000Y-10685000D02*
X15270000Y-10715000D01*
X15270000Y-10685000D02*
X15240000Y-10715000D01*
X15240000Y-10760000D02*
X15270000Y-10790000D01*
X15270000Y-10760000D02*
X15240000Y-10790000D01*
X15240000Y-10835000D02*
X15270000Y-10865000D01*
X15270000Y-10835000D02*
X15240000Y-10865000D01*
X15240000Y-10910000D02*
X15270000Y-10940000D01*
X15270000Y-10910000D02*
X15240000Y-10940000D01*
X15285000Y-10135000D02*
X15315000Y-10165000D01*
X15315000Y-10135000D02*
X15285000Y-10165000D01*
X15385000Y-10460000D02*
X15415000Y-10490000D01*
X15415000Y-10460000D02*
X15385000Y-10490000D01*
X15385000Y-10535000D02*
X15415000Y-10565000D01*
X15415000Y-10535000D02*
X15385000Y-10565000D01*
X15385000Y-10610000D02*
X15415000Y-10640000D01*
X15415000Y-10610000D02*
X15385000Y-10640000D01*
X15385000Y-10685000D02*
X15415000Y-10715000D01*
X15415000Y-10685000D02*
X15385000Y-10715000D01*
X15385000Y-10760000D02*
X15415000Y-10790000D01*
X15415000Y-10760000D02*
X15385000Y-10790000D01*
X15385000Y-10835000D02*
X15415000Y-10865000D01*
X15415000Y-10835000D02*
X15385000Y-10865000D01*
X15385000Y-10910000D02*
X15415000Y-10940000D01*
X15415000Y-10910000D02*
X15385000Y-10940000D01*
X15485000Y-9485000D02*
X15515000Y-9515000D01*
X15515000Y-9485000D02*
X15485000Y-9515000D01*
X15485000Y-10485000D02*
X15515000Y-10515000D01*
X15515000Y-10485000D02*
X15485000Y-10515000D01*
X15485000Y-11735000D02*
X15515000Y-11765000D01*
X15515000Y-11735000D02*
X15485000Y-11765000D01*
X15635000Y-11452300D02*
X15665000Y-11482300D01*
X15665000Y-11452300D02*
X15635000Y-11482300D01*
X15735000Y-9235000D02*
X15765000Y-9265000D01*
X15765000Y-9235000D02*
X15735000Y-9265000D01*
X15735000Y-10735000D02*
X15765000Y-10765000D01*
X15765000Y-10735000D02*
X15735000Y-10765000D01*
X15880000Y-11152500D02*
X15910000Y-11182500D01*
X15910000Y-11152500D02*
X15880000Y-11182500D01*
X15945000Y-11515000D02*
X15975000Y-11545000D01*
X15975000Y-11515000D02*
X15945000Y-11545000D01*
X15985000Y-10885000D02*
X16015000Y-10915000D01*
X16015000Y-10885000D02*
X15985000Y-10915000D01*
X16050000Y-11340000D02*
X16080000Y-11370000D01*
X16080000Y-11340000D02*
X16050000Y-11370000D01*
X16235000Y-9235000D02*
X16265000Y-9265000D01*
X16265000Y-9235000D02*
X16235000Y-9265000D01*
X16235000Y-9735000D02*
X16265000Y-9765000D01*
X16265000Y-9735000D02*
X16235000Y-9765000D01*
X16235000Y-10485000D02*
X16265000Y-10515000D01*
X16265000Y-10485000D02*
X16235000Y-10515000D01*
X16485000Y-8485000D02*
X16515000Y-8515000D01*
X16515000Y-8485000D02*
X16485000Y-8515000D01*
X16535000Y-9585000D02*
X16565000Y-9615000D01*
X16565000Y-9585000D02*
X16535000Y-9615000D01*
X16535000Y-9735000D02*
X16565000Y-9765000D01*
X16565000Y-9735000D02*
X16535000Y-9765000D01*
X16555000Y-11024200D02*
X16585000Y-11054200D01*
X16585000Y-11024200D02*
X16555000Y-11054200D01*
X16610000Y-9585000D02*
X16640000Y-9615000D01*
X16640000Y-9585000D02*
X16610000Y-9615000D01*
X16610000Y-9735000D02*
X16640000Y-9765000D01*
X16640000Y-9735000D02*
X16610000Y-9765000D01*
X16685000Y-9585000D02*
X16715000Y-9615000D01*
X16715000Y-9585000D02*
X16685000Y-9615000D01*
X16685000Y-9735000D02*
X16715000Y-9765000D01*
X16715000Y-9735000D02*
X16685000Y-9765000D01*
X16735000Y-9235000D02*
X16765000Y-9265000D01*
X16765000Y-9235000D02*
X16735000Y-9265000D01*
X16735000Y-10735000D02*
X16765000Y-10765000D01*
X16765000Y-10735000D02*
X16735000Y-10765000D01*
X16760000Y-9585000D02*
X16790000Y-9615000D01*
X16790000Y-9585000D02*
X16760000Y-9615000D01*
X16760000Y-9735000D02*
X16790000Y-9765000D01*
X16790000Y-9735000D02*
X16760000Y-9765000D01*
X16835000Y-9585000D02*
X16865000Y-9615000D01*
X16865000Y-9585000D02*
X16835000Y-9615000D01*
X16835000Y-9735000D02*
X16865000Y-9765000D01*
X16865000Y-9735000D02*
X16835000Y-9765000D01*
X16910000Y-9585000D02*
X16940000Y-9615000D01*
X16940000Y-9585000D02*
X16910000Y-9615000D01*
X16910000Y-9735000D02*
X16940000Y-9765000D01*
X16940000Y-9735000D02*
X16910000Y-9765000D01*
X16985000Y-8485000D02*
X17015000Y-8515000D01*
X17015000Y-8485000D02*
X16985000Y-8515000D01*
X16985000Y-9485000D02*
X17015000Y-9515000D01*
X17015000Y-9485000D02*
X16985000Y-9515000D01*
X16985000Y-9585000D02*
X17015000Y-9615000D01*
X17015000Y-9585000D02*
X16985000Y-9615000D01*
X16985000Y-9735000D02*
X17015000Y-9765000D01*
X17015000Y-9735000D02*
X16985000Y-9765000D01*
X16985000Y-10485000D02*
X17015000Y-10515000D01*
X17015000Y-10485000D02*
X16985000Y-10515000D01*
X17185000Y-9835000D02*
X17215000Y-9865000D01*
X17215000Y-9835000D02*
X17185000Y-9865000D01*
X17335000Y-9685000D02*
X17365000Y-9715000D01*
X17365000Y-9685000D02*
X17335000Y-9715000D01*
X17335000Y-9835000D02*
X17365000Y-9865000D01*
X17365000Y-9835000D02*
X17335000Y-9865000D01*
X17485000Y-9985000D02*
X17515000Y-10015000D01*
X17515000Y-9985000D02*
X17485000Y-10015000D01*
X17485000Y-11485000D02*
X17515000Y-11515000D01*
X17515000Y-11485000D02*
X17485000Y-11515000D01*
X17485000Y-11785000D02*
X17515000Y-11815000D01*
X17515000Y-11785000D02*
X17485000Y-11815000D01*
X17635000Y-10285000D02*
X17665000Y-10315000D01*
X17665000Y-10285000D02*
X17635000Y-10315000D01*
X17740000Y-10460000D02*
X17770000Y-10490000D01*
X17770000Y-10460000D02*
X17740000Y-10490000D01*
X17740000Y-10535000D02*
X17770000Y-10565000D01*
X17770000Y-10535000D02*
X17740000Y-10565000D01*
X17740000Y-10610000D02*
X17770000Y-10640000D01*
X17770000Y-10610000D02*
X17740000Y-10640000D01*
X17740000Y-10685000D02*
X17770000Y-10715000D01*
X17770000Y-10685000D02*
X17740000Y-10715000D01*
X17740000Y-10760000D02*
X17770000Y-10790000D01*
X17770000Y-10760000D02*
X17740000Y-10790000D01*
X17740000Y-10835000D02*
X17770000Y-10865000D01*
X17770000Y-10835000D02*
X17740000Y-10865000D01*
X17740000Y-10910000D02*
X17770000Y-10940000D01*
X17770000Y-10910000D02*
X17740000Y-10940000D01*
X17785000Y-10135000D02*
X17815000Y-10165000D01*
X17815000Y-10135000D02*
X17785000Y-10165000D01*
X17885000Y-10460000D02*
X17915000Y-10490000D01*
X17915000Y-10460000D02*
X17885000Y-10490000D01*
X17885000Y-10535000D02*
X17915000Y-10565000D01*
X17915000Y-10535000D02*
X17885000Y-10565000D01*
X17885000Y-10610000D02*
X17915000Y-10640000D01*
X17915000Y-10610000D02*
X17885000Y-10640000D01*
X17885000Y-10685000D02*
X17915000Y-10715000D01*
X17915000Y-10685000D02*
X17885000Y-10715000D01*
X17885000Y-10760000D02*
X17915000Y-10790000D01*
X17915000Y-10760000D02*
X17885000Y-10790000D01*
X17885000Y-10835000D02*
X17915000Y-10865000D01*
X17915000Y-10835000D02*
X17885000Y-10865000D01*
X17885000Y-10910000D02*
X17915000Y-10940000D01*
X17915000Y-10910000D02*
X17885000Y-10940000D01*
X17985000Y-9485000D02*
X18015000Y-9515000D01*
X18015000Y-9485000D02*
X17985000Y-9515000D01*
X17985000Y-10485000D02*
X18015000Y-10515000D01*
X18015000Y-10485000D02*
X17985000Y-10515000D01*
X17985000Y-11735000D02*
X18015000Y-11765000D01*
X18015000Y-11735000D02*
X17985000Y-11765000D01*
X18135000Y-11452300D02*
X18165000Y-11482300D01*
X18165000Y-11452300D02*
X18135000Y-11482300D01*
X18235000Y-9235000D02*
X18265000Y-9265000D01*
X18265000Y-9235000D02*
X18235000Y-9265000D01*
X18235000Y-10735000D02*
X18265000Y-10765000D01*
X18265000Y-10735000D02*
X18235000Y-10765000D01*
X18375000Y-11155000D02*
X18405000Y-11185000D01*
X18405000Y-11155000D02*
X18375000Y-11185000D01*
X18435000Y-11335000D02*
X18465000Y-11365000D01*
X18465000Y-11335000D02*
X18435000Y-11365000D01*
X18445000Y-11515000D02*
X18475000Y-11545000D01*
X18475000Y-11515000D02*
X18445000Y-11545000D01*
X18485000Y-8485000D02*
X18515000Y-8515000D01*
X18515000Y-8485000D02*
X18485000Y-8515000D01*
X18485000Y-10885000D02*
X18515000Y-10915000D01*
X18515000Y-10885000D02*
X18485000Y-10915000D01*
X18735000Y-9485000D02*
X18765000Y-9515000D01*
X18765000Y-9485000D02*
X18735000Y-9515000D01*
X18735000Y-10485000D02*
X18765000Y-10515000D01*
X18765000Y-10485000D02*
X18735000Y-10515000D01*
X19125000Y-11439500D02*
X19155000Y-11469500D01*
X19155000Y-11439500D02*
X19125000Y-11469500D01*
X19735000Y-9485000D02*
X19765000Y-9515000D01*
X19765000Y-9485000D02*
X19735000Y-9515000D01*
X19735000Y-10485000D02*
X19765000Y-10515000D01*
X19765000Y-10485000D02*
X19735000Y-10515000D01*
X7875000Y-10506250D02*
G75*
G02*
X7845000Y-10506250I-15000J0D01*
G01*
X7845000Y-10506250D02*
G75*
G02*
X7875000Y-10506250I15000J0D01*
G01*
X7875000Y-10606250D02*
G75*
G02*
X7845000Y-10606250I-15000J0D01*
G01*
X7845000Y-10606250D02*
G75*
G02*
X7875000Y-10606250I15000J0D01*
G01*
X7875000Y-10706250D02*
G75*
G02*
X7845000Y-10706250I-15000J0D01*
G01*
X7845000Y-10706250D02*
G75*
G02*
X7875000Y-10706250I15000J0D01*
G01*
X7885000Y-9070000D02*
G75*
G02*
X7855000Y-9070000I-15000J0D01*
G01*
X7855000Y-9070000D02*
G75*
G02*
X7885000Y-9070000I15000J0D01*
G01*
X7885000Y-9170000D02*
G75*
G02*
X7855000Y-9170000I-15000J0D01*
G01*
X7855000Y-9170000D02*
G75*
G02*
X7885000Y-9170000I15000J0D01*
G01*
X7885000Y-9270000D02*
G75*
G02*
X7855000Y-9270000I-15000J0D01*
G01*
X7855000Y-9270000D02*
G75*
G02*
X7885000Y-9270000I15000J0D01*
G01*
X7975000Y-10506250D02*
G75*
G02*
X7945000Y-10506250I-15000J0D01*
G01*
X7945000Y-10506250D02*
G75*
G02*
X7975000Y-10506250I15000J0D01*
G01*
X7975000Y-10606250D02*
G75*
G02*
X7945000Y-10606250I-15000J0D01*
G01*
X7945000Y-10606250D02*
G75*
G02*
X7975000Y-10606250I15000J0D01*
G01*
X7975000Y-10706250D02*
G75*
G02*
X7945000Y-10706250I-15000J0D01*
G01*
X7945000Y-10706250D02*
G75*
G02*
X7975000Y-10706250I15000J0D01*
G01*
X7985000Y-9070000D02*
G75*
G02*
X7955000Y-9070000I-15000J0D01*
G01*
X7955000Y-9070000D02*
G75*
G02*
X7985000Y-9070000I15000J0D01*
G01*
X7985000Y-9170000D02*
G75*
G02*
X7955000Y-9170000I-15000J0D01*
G01*
X7955000Y-9170000D02*
G75*
G02*
X7985000Y-9170000I15000J0D01*
G01*
X7985000Y-9270000D02*
G75*
G02*
X7955000Y-9270000I-15000J0D01*
G01*
X7955000Y-9270000D02*
G75*
G02*
X7985000Y-9270000I15000J0D01*
G01*
X8075000Y-10506250D02*
G75*
G02*
X8045000Y-10506250I-15000J0D01*
G01*
X8045000Y-10506250D02*
G75*
G02*
X8075000Y-10506250I15000J0D01*
G01*
X8075000Y-10606250D02*
G75*
G02*
X8045000Y-10606250I-15000J0D01*
G01*
X8045000Y-10606250D02*
G75*
G02*
X8075000Y-10606250I15000J0D01*
G01*
X8075000Y-10706250D02*
G75*
G02*
X8045000Y-10706250I-15000J0D01*
G01*
X8045000Y-10706250D02*
G75*
G02*
X8075000Y-10706250I15000J0D01*
G01*
X8085000Y-9070000D02*
G75*
G02*
X8055000Y-9070000I-15000J0D01*
G01*
X8055000Y-9070000D02*
G75*
G02*
X8085000Y-9070000I15000J0D01*
G01*
X8085000Y-9170000D02*
G75*
G02*
X8055000Y-9170000I-15000J0D01*
G01*
X8055000Y-9170000D02*
G75*
G02*
X8085000Y-9170000I15000J0D01*
G01*
X8085000Y-9270000D02*
G75*
G02*
X8055000Y-9270000I-15000J0D01*
G01*
X8055000Y-9270000D02*
G75*
G02*
X8085000Y-9270000I15000J0D01*
G01*
X7492000Y-8150000D02*
X7492000Y-8250000D01*
X7442000Y-8200000D02*
X7542000Y-8200000D01*
X7492000Y-8404000D02*
X7492000Y-8504000D01*
X7442000Y-8454000D02*
X7542000Y-8454000D01*
X7492000Y-11596000D02*
X7492000Y-11696000D01*
X7442000Y-11646000D02*
X7542000Y-11646000D01*
X7492000Y-11850000D02*
X7492000Y-11950000D01*
X7442000Y-11900000D02*
X7542000Y-11900000D01*
X7746000Y-8150000D02*
X7746000Y-8250000D01*
X7696000Y-8200000D02*
X7796000Y-8200000D01*
X7746000Y-8404000D02*
X7746000Y-8504000D01*
X7696000Y-8454000D02*
X7796000Y-8454000D01*
X7746000Y-11596000D02*
X7746000Y-11696000D01*
X7696000Y-11646000D02*
X7796000Y-11646000D01*
X7746000Y-11850000D02*
X7746000Y-11950000D01*
X7696000Y-11900000D02*
X7796000Y-11900000D01*
X8000000Y-8150000D02*
X8000000Y-8250000D01*
X7950000Y-8200000D02*
X8050000Y-8200000D01*
X8000000Y-8404000D02*
X8000000Y-8504000D01*
X7950000Y-8454000D02*
X8050000Y-8454000D01*
X8000000Y-11596000D02*
X8000000Y-11696000D01*
X7950000Y-11646000D02*
X8050000Y-11646000D01*
X8000000Y-11850000D02*
X8000000Y-11950000D01*
X7950000Y-11900000D02*
X8050000Y-11900000D01*
X19346000Y-8196000D02*
X19346000Y-8296000D01*
X19296000Y-8246000D02*
X19396000Y-8246000D01*
X19346000Y-8450000D02*
X19346000Y-8550000D01*
X19296000Y-8500000D02*
X19396000Y-8500000D01*
X19346000Y-11596000D02*
X19346000Y-11696000D01*
X19296000Y-11646000D02*
X19396000Y-11646000D01*
X19346000Y-11850000D02*
X19346000Y-11950000D01*
X19296000Y-11900000D02*
X19396000Y-11900000D01*
X19600000Y-8196000D02*
X19600000Y-8296000D01*
X19550000Y-8246000D02*
X19650000Y-8246000D01*
X19600000Y-8450000D02*
X19600000Y-8550000D01*
X19550000Y-8500000D02*
X19650000Y-8500000D01*
X19600000Y-11596000D02*
X19600000Y-11696000D01*
X19550000Y-11646000D02*
X19650000Y-11646000D01*
X19600000Y-11850000D02*
X19600000Y-11950000D01*
X19550000Y-11900000D02*
X19650000Y-11900000D01*
X19854000Y-8196000D02*
X19854000Y-8296000D01*
X19804000Y-8246000D02*
X19904000Y-8246000D01*
X19854000Y-8450000D02*
X19854000Y-8550000D01*
X19804000Y-8500000D02*
X19904000Y-8500000D01*
X19854000Y-11596000D02*
X19854000Y-11696000D01*
X19804000Y-11646000D02*
X19904000Y-11646000D01*
X19854000Y-11850000D02*
X19854000Y-11950000D01*
X19804000Y-11900000D02*
X19904000Y-11900000D01*
D13*
X8563138Y-8438138D02*
X8563138Y-8211862D01*
X8336862Y-8211862D01*
X8336862Y-8438138D01*
X8563138Y-8438138D01*
X8563138Y-11888138D02*
X8563138Y-11661862D01*
X8336862Y-11661862D01*
X8336862Y-11888138D01*
X8563138Y-11888138D01*
X9663138Y-11613138D02*
X9663138Y-11386862D01*
X9436862Y-11386862D01*
X9436862Y-11613138D01*
X9663138Y-11613138D01*
X10563138Y-8613138D02*
X10563138Y-8386862D01*
X10336862Y-8386862D01*
X10336862Y-8613138D01*
X10563138Y-8613138D01*
X12163138Y-11613138D02*
X12163138Y-11386862D01*
X11936862Y-11386862D01*
X11936862Y-11613138D01*
X12163138Y-11613138D01*
X13063138Y-8613138D02*
X13063138Y-8386862D01*
X12836862Y-8386862D01*
X12836862Y-8613138D01*
X13063138Y-8613138D01*
X14663138Y-11613138D02*
X14663138Y-11386862D01*
X14436862Y-11386862D01*
X14436862Y-11613138D01*
X14663138Y-11613138D01*
X15563138Y-8613138D02*
X15563138Y-8386862D01*
X15336862Y-8386862D01*
X15336862Y-8613138D01*
X15563138Y-8613138D01*
X17163138Y-11613138D02*
X17163138Y-11386862D01*
X16936862Y-11386862D01*
X16936862Y-11613138D01*
X17163138Y-11613138D01*
X18063138Y-8613138D02*
X18063138Y-8386862D01*
X17836862Y-8386862D01*
X17836862Y-8613138D01*
X18063138Y-8613138D01*
X19838138Y-9063138D02*
X19838138Y-8836862D01*
X19611862Y-8836862D01*
X19611862Y-9063138D01*
X19838138Y-9063138D01*
X19838138Y-11338138D02*
X19838138Y-11111862D01*
X19611862Y-11111862D01*
X19611862Y-11338138D01*
X19838138Y-11338138D01*
D11*
X7508277Y-12463984D02*
X7508277Y-12263984D01*
X7508277Y-12263984D02*
X7555896Y-12263984D01*
X7555896Y-12263984D02*
X7584467Y-12273508D01*
X7584467Y-12273508D02*
X7603515Y-12292555D01*
X7603515Y-12292555D02*
X7613039Y-12311603D01*
X7613039Y-12311603D02*
X7622562Y-12349698D01*
X7622562Y-12349698D02*
X7622562Y-12378269D01*
X7622562Y-12378269D02*
X7613039Y-12416365D01*
X7613039Y-12416365D02*
X7603515Y-12435412D01*
X7603515Y-12435412D02*
X7584467Y-12454460D01*
X7584467Y-12454460D02*
X7555896Y-12463984D01*
X7555896Y-12463984D02*
X7508277Y-12463984D01*
X7708277Y-12463984D02*
X7708277Y-12330650D01*
X7708277Y-12368746D02*
X7717801Y-12349698D01*
X7717801Y-12349698D02*
X7727324Y-12340174D01*
X7727324Y-12340174D02*
X7746372Y-12330650D01*
X7746372Y-12330650D02*
X7765420Y-12330650D01*
X7832086Y-12463984D02*
X7832086Y-12330650D01*
X7832086Y-12263984D02*
X7822562Y-12273508D01*
X7822562Y-12273508D02*
X7832086Y-12283031D01*
X7832086Y-12283031D02*
X7841610Y-12273508D01*
X7841610Y-12273508D02*
X7832086Y-12263984D01*
X7832086Y-12263984D02*
X7832086Y-12283031D01*
X7955896Y-12463984D02*
X7936848Y-12454460D01*
X7936848Y-12454460D02*
X7927324Y-12435412D01*
X7927324Y-12435412D02*
X7927324Y-12263984D01*
X8060658Y-12463984D02*
X8041610Y-12454460D01*
X8041610Y-12454460D02*
X8032086Y-12435412D01*
X8032086Y-12435412D02*
X8032086Y-12263984D01*
X8289229Y-12463984D02*
X8289229Y-12263984D01*
X8289229Y-12263984D02*
X8355896Y-12406841D01*
X8355896Y-12406841D02*
X8422563Y-12263984D01*
X8422563Y-12263984D02*
X8422563Y-12463984D01*
X8603515Y-12463984D02*
X8603515Y-12359222D01*
X8603515Y-12359222D02*
X8593991Y-12340174D01*
X8593991Y-12340174D02*
X8574944Y-12330650D01*
X8574944Y-12330650D02*
X8536848Y-12330650D01*
X8536848Y-12330650D02*
X8517801Y-12340174D01*
X8603515Y-12454460D02*
X8584467Y-12463984D01*
X8584467Y-12463984D02*
X8536848Y-12463984D01*
X8536848Y-12463984D02*
X8517801Y-12454460D01*
X8517801Y-12454460D02*
X8508277Y-12435412D01*
X8508277Y-12435412D02*
X8508277Y-12416365D01*
X8508277Y-12416365D02*
X8517801Y-12397317D01*
X8517801Y-12397317D02*
X8536848Y-12387793D01*
X8536848Y-12387793D02*
X8584467Y-12387793D01*
X8584467Y-12387793D02*
X8603515Y-12378269D01*
X8698753Y-12330650D02*
X8698753Y-12530650D01*
X8698753Y-12340174D02*
X8717801Y-12330650D01*
X8717801Y-12330650D02*
X8755896Y-12330650D01*
X8755896Y-12330650D02*
X8774944Y-12340174D01*
X8774944Y-12340174D02*
X8784467Y-12349698D01*
X8784467Y-12349698D02*
X8793991Y-12368746D01*
X8793991Y-12368746D02*
X8793991Y-12425888D01*
X8793991Y-12425888D02*
X8784467Y-12444936D01*
X8784467Y-12444936D02*
X8774944Y-12454460D01*
X8774944Y-12454460D02*
X8755896Y-12463984D01*
X8755896Y-12463984D02*
X8717801Y-12463984D01*
X8717801Y-12463984D02*
X8698753Y-12454460D01*
X8879705Y-12444936D02*
X8889229Y-12454460D01*
X8889229Y-12454460D02*
X8879705Y-12463984D01*
X8879705Y-12463984D02*
X8870182Y-12454460D01*
X8870182Y-12454460D02*
X8879705Y-12444936D01*
X8879705Y-12444936D02*
X8879705Y-12463984D01*
X8879705Y-12340174D02*
X8889229Y-12349698D01*
X8889229Y-12349698D02*
X8879705Y-12359222D01*
X8879705Y-12359222D02*
X8870182Y-12349698D01*
X8870182Y-12349698D02*
X8879705Y-12340174D01*
X8879705Y-12340174D02*
X8879705Y-12359222D01*
D12*
X7217500Y-12777500D02*
X7247500Y-12807500D01*
X7247500Y-12777500D02*
X7217500Y-12807500D01*
D11*
X7546372Y-12683984D02*
X7565420Y-12683984D01*
X7565420Y-12683984D02*
X7584467Y-12693508D01*
X7584467Y-12693508D02*
X7593991Y-12703031D01*
X7593991Y-12703031D02*
X7603515Y-12722079D01*
X7603515Y-12722079D02*
X7613039Y-12760174D01*
X7613039Y-12760174D02*
X7613039Y-12807793D01*
X7613039Y-12807793D02*
X7603515Y-12845888D01*
X7603515Y-12845888D02*
X7593991Y-12864936D01*
X7593991Y-12864936D02*
X7584467Y-12874460D01*
X7584467Y-12874460D02*
X7565420Y-12883984D01*
X7565420Y-12883984D02*
X7546372Y-12883984D01*
X7546372Y-12883984D02*
X7527324Y-12874460D01*
X7527324Y-12874460D02*
X7517801Y-12864936D01*
X7517801Y-12864936D02*
X7508277Y-12845888D01*
X7508277Y-12845888D02*
X7498753Y-12807793D01*
X7498753Y-12807793D02*
X7498753Y-12760174D01*
X7498753Y-12760174D02*
X7508277Y-12722079D01*
X7508277Y-12722079D02*
X7517801Y-12703031D01*
X7517801Y-12703031D02*
X7527324Y-12693508D01*
X7527324Y-12693508D02*
X7546372Y-12683984D01*
X7698753Y-12864936D02*
X7708277Y-12874460D01*
X7708277Y-12874460D02*
X7698753Y-12883984D01*
X7698753Y-12883984D02*
X7689229Y-12874460D01*
X7689229Y-12874460D02*
X7698753Y-12864936D01*
X7698753Y-12864936D02*
X7698753Y-12883984D01*
X7774943Y-12683984D02*
X7898753Y-12683984D01*
X7898753Y-12683984D02*
X7832086Y-12760174D01*
X7832086Y-12760174D02*
X7860658Y-12760174D01*
X7860658Y-12760174D02*
X7879705Y-12769698D01*
X7879705Y-12769698D02*
X7889229Y-12779222D01*
X7889229Y-12779222D02*
X7898753Y-12798269D01*
X7898753Y-12798269D02*
X7898753Y-12845888D01*
X7898753Y-12845888D02*
X7889229Y-12864936D01*
X7889229Y-12864936D02*
X7879705Y-12874460D01*
X7879705Y-12874460D02*
X7860658Y-12883984D01*
X7860658Y-12883984D02*
X7803515Y-12883984D01*
X7803515Y-12883984D02*
X7784467Y-12874460D01*
X7784467Y-12874460D02*
X7774943Y-12864936D01*
X8022562Y-12683984D02*
X8041610Y-12683984D01*
X8041610Y-12683984D02*
X8060658Y-12693508D01*
X8060658Y-12693508D02*
X8070182Y-12703031D01*
X8070182Y-12703031D02*
X8079705Y-12722079D01*
X8079705Y-12722079D02*
X8089229Y-12760174D01*
X8089229Y-12760174D02*
X8089229Y-12807793D01*
X8089229Y-12807793D02*
X8079705Y-12845888D01*
X8079705Y-12845888D02*
X8070182Y-12864936D01*
X8070182Y-12864936D02*
X8060658Y-12874460D01*
X8060658Y-12874460D02*
X8041610Y-12883984D01*
X8041610Y-12883984D02*
X8022562Y-12883984D01*
X8022562Y-12883984D02*
X8003515Y-12874460D01*
X8003515Y-12874460D02*
X7993991Y-12864936D01*
X7993991Y-12864936D02*
X7984467Y-12845888D01*
X7984467Y-12845888D02*
X7974943Y-12807793D01*
X7974943Y-12807793D02*
X7974943Y-12760174D01*
X7974943Y-12760174D02*
X7984467Y-12722079D01*
X7984467Y-12722079D02*
X7993991Y-12703031D01*
X7993991Y-12703031D02*
X8003515Y-12693508D01*
X8003515Y-12693508D02*
X8022562Y-12683984D01*
X8213039Y-12683984D02*
X8232086Y-12683984D01*
X8232086Y-12683984D02*
X8251134Y-12693508D01*
X8251134Y-12693508D02*
X8260658Y-12703031D01*
X8260658Y-12703031D02*
X8270182Y-12722079D01*
X8270182Y-12722079D02*
X8279705Y-12760174D01*
X8279705Y-12760174D02*
X8279705Y-12807793D01*
X8279705Y-12807793D02*
X8270182Y-12845888D01*
X8270182Y-12845888D02*
X8260658Y-12864936D01*
X8260658Y-12864936D02*
X8251134Y-12874460D01*
X8251134Y-12874460D02*
X8232086Y-12883984D01*
X8232086Y-12883984D02*
X8213039Y-12883984D01*
X8213039Y-12883984D02*
X8193991Y-12874460D01*
X8193991Y-12874460D02*
X8184467Y-12864936D01*
X8184467Y-12864936D02*
X8174943Y-12845888D01*
X8174943Y-12845888D02*
X8165420Y-12807793D01*
X8165420Y-12807793D02*
X8165420Y-12760174D01*
X8165420Y-12760174D02*
X8174943Y-12722079D01*
X8174943Y-12722079D02*
X8184467Y-12703031D01*
X8184467Y-12703031D02*
X8193991Y-12693508D01*
X8193991Y-12693508D02*
X8213039Y-12683984D01*
X8365420Y-12883984D02*
X8365420Y-12750650D01*
X8365420Y-12769698D02*
X8374943Y-12760174D01*
X8374943Y-12760174D02*
X8393991Y-12750650D01*
X8393991Y-12750650D02*
X8422563Y-12750650D01*
X8422563Y-12750650D02*
X8441610Y-12760174D01*
X8441610Y-12760174D02*
X8451134Y-12779222D01*
X8451134Y-12779222D02*
X8451134Y-12883984D01*
X8451134Y-12779222D02*
X8460658Y-12760174D01*
X8460658Y-12760174D02*
X8479705Y-12750650D01*
X8479705Y-12750650D02*
X8508277Y-12750650D01*
X8508277Y-12750650D02*
X8527325Y-12760174D01*
X8527325Y-12760174D02*
X8536848Y-12779222D01*
X8536848Y-12779222D02*
X8536848Y-12883984D01*
X8632086Y-12883984D02*
X8632086Y-12750650D01*
X8632086Y-12769698D02*
X8641610Y-12760174D01*
X8641610Y-12760174D02*
X8660658Y-12750650D01*
X8660658Y-12750650D02*
X8689229Y-12750650D01*
X8689229Y-12750650D02*
X8708277Y-12760174D01*
X8708277Y-12760174D02*
X8717801Y-12779222D01*
X8717801Y-12779222D02*
X8717801Y-12883984D01*
X8717801Y-12779222D02*
X8727325Y-12760174D01*
X8727325Y-12760174D02*
X8746372Y-12750650D01*
X8746372Y-12750650D02*
X8774944Y-12750650D01*
X8774944Y-12750650D02*
X8793991Y-12760174D01*
X8793991Y-12760174D02*
X8803515Y-12779222D01*
X8803515Y-12779222D02*
X8803515Y-12883984D01*
X9193991Y-12674460D02*
X9022563Y-12931603D01*
X9451134Y-12683984D02*
X9470182Y-12683984D01*
X9470182Y-12683984D02*
X9489229Y-12693508D01*
X9489229Y-12693508D02*
X9498753Y-12703031D01*
X9498753Y-12703031D02*
X9508277Y-12722079D01*
X9508277Y-12722079D02*
X9517801Y-12760174D01*
X9517801Y-12760174D02*
X9517801Y-12807793D01*
X9517801Y-12807793D02*
X9508277Y-12845888D01*
X9508277Y-12845888D02*
X9498753Y-12864936D01*
X9498753Y-12864936D02*
X9489229Y-12874460D01*
X9489229Y-12874460D02*
X9470182Y-12883984D01*
X9470182Y-12883984D02*
X9451134Y-12883984D01*
X9451134Y-12883984D02*
X9432087Y-12874460D01*
X9432087Y-12874460D02*
X9422563Y-12864936D01*
X9422563Y-12864936D02*
X9413039Y-12845888D01*
X9413039Y-12845888D02*
X9403515Y-12807793D01*
X9403515Y-12807793D02*
X9403515Y-12760174D01*
X9403515Y-12760174D02*
X9413039Y-12722079D01*
X9413039Y-12722079D02*
X9422563Y-12703031D01*
X9422563Y-12703031D02*
X9432087Y-12693508D01*
X9432087Y-12693508D02*
X9451134Y-12683984D01*
X9603515Y-12864936D02*
X9613039Y-12874460D01*
X9613039Y-12874460D02*
X9603515Y-12883984D01*
X9603515Y-12883984D02*
X9593991Y-12874460D01*
X9593991Y-12874460D02*
X9603515Y-12864936D01*
X9603515Y-12864936D02*
X9603515Y-12883984D01*
X9736848Y-12683984D02*
X9755896Y-12683984D01*
X9755896Y-12683984D02*
X9774944Y-12693508D01*
X9774944Y-12693508D02*
X9784468Y-12703031D01*
X9784468Y-12703031D02*
X9793991Y-12722079D01*
X9793991Y-12722079D02*
X9803515Y-12760174D01*
X9803515Y-12760174D02*
X9803515Y-12807793D01*
X9803515Y-12807793D02*
X9793991Y-12845888D01*
X9793991Y-12845888D02*
X9784468Y-12864936D01*
X9784468Y-12864936D02*
X9774944Y-12874460D01*
X9774944Y-12874460D02*
X9755896Y-12883984D01*
X9755896Y-12883984D02*
X9736848Y-12883984D01*
X9736848Y-12883984D02*
X9717801Y-12874460D01*
X9717801Y-12874460D02*
X9708277Y-12864936D01*
X9708277Y-12864936D02*
X9698753Y-12845888D01*
X9698753Y-12845888D02*
X9689229Y-12807793D01*
X9689229Y-12807793D02*
X9689229Y-12760174D01*
X9689229Y-12760174D02*
X9698753Y-12722079D01*
X9698753Y-12722079D02*
X9708277Y-12703031D01*
X9708277Y-12703031D02*
X9717801Y-12693508D01*
X9717801Y-12693508D02*
X9736848Y-12683984D01*
X9993991Y-12883984D02*
X9879706Y-12883984D01*
X9936848Y-12883984D02*
X9936848Y-12683984D01*
X9936848Y-12683984D02*
X9917801Y-12712555D01*
X9917801Y-12712555D02*
X9898753Y-12731603D01*
X9898753Y-12731603D02*
X9879706Y-12741127D01*
X10184468Y-12883984D02*
X10070182Y-12883984D01*
X10127325Y-12883984D02*
X10127325Y-12683984D01*
X10127325Y-12683984D02*
X10108277Y-12712555D01*
X10108277Y-12712555D02*
X10089229Y-12731603D01*
X10089229Y-12731603D02*
X10070182Y-12741127D01*
X10298753Y-12769698D02*
X10279706Y-12760174D01*
X10279706Y-12760174D02*
X10270182Y-12750650D01*
X10270182Y-12750650D02*
X10260658Y-12731603D01*
X10260658Y-12731603D02*
X10260658Y-12722079D01*
X10260658Y-12722079D02*
X10270182Y-12703031D01*
X10270182Y-12703031D02*
X10279706Y-12693508D01*
X10279706Y-12693508D02*
X10298753Y-12683984D01*
X10298753Y-12683984D02*
X10336849Y-12683984D01*
X10336849Y-12683984D02*
X10355896Y-12693508D01*
X10355896Y-12693508D02*
X10365420Y-12703031D01*
X10365420Y-12703031D02*
X10374944Y-12722079D01*
X10374944Y-12722079D02*
X10374944Y-12731603D01*
X10374944Y-12731603D02*
X10365420Y-12750650D01*
X10365420Y-12750650D02*
X10355896Y-12760174D01*
X10355896Y-12760174D02*
X10336849Y-12769698D01*
X10336849Y-12769698D02*
X10298753Y-12769698D01*
X10298753Y-12769698D02*
X10279706Y-12779222D01*
X10279706Y-12779222D02*
X10270182Y-12788746D01*
X10270182Y-12788746D02*
X10260658Y-12807793D01*
X10260658Y-12807793D02*
X10260658Y-12845888D01*
X10260658Y-12845888D02*
X10270182Y-12864936D01*
X10270182Y-12864936D02*
X10279706Y-12874460D01*
X10279706Y-12874460D02*
X10298753Y-12883984D01*
X10298753Y-12883984D02*
X10336849Y-12883984D01*
X10336849Y-12883984D02*
X10355896Y-12874460D01*
X10355896Y-12874460D02*
X10365420Y-12864936D01*
X10365420Y-12864936D02*
X10374944Y-12845888D01*
X10374944Y-12845888D02*
X10374944Y-12807793D01*
X10374944Y-12807793D02*
X10365420Y-12788746D01*
X10365420Y-12788746D02*
X10355896Y-12779222D01*
X10355896Y-12779222D02*
X10336849Y-12769698D01*
X10451134Y-12683984D02*
X10451134Y-12722079D01*
X10527325Y-12683984D02*
X10527325Y-12722079D01*
X10822563Y-12960174D02*
X10813039Y-12950650D01*
X10813039Y-12950650D02*
X10793991Y-12922079D01*
X10793991Y-12922079D02*
X10784468Y-12903031D01*
X10784468Y-12903031D02*
X10774944Y-12874460D01*
X10774944Y-12874460D02*
X10765420Y-12826841D01*
X10765420Y-12826841D02*
X10765420Y-12788746D01*
X10765420Y-12788746D02*
X10774944Y-12741127D01*
X10774944Y-12741127D02*
X10784468Y-12712555D01*
X10784468Y-12712555D02*
X10793991Y-12693508D01*
X10793991Y-12693508D02*
X10813039Y-12664936D01*
X10813039Y-12664936D02*
X10822563Y-12655412D01*
X10889230Y-12703031D02*
X10898753Y-12693508D01*
X10898753Y-12693508D02*
X10917801Y-12683984D01*
X10917801Y-12683984D02*
X10965420Y-12683984D01*
X10965420Y-12683984D02*
X10984468Y-12693508D01*
X10984468Y-12693508D02*
X10993991Y-12703031D01*
X10993991Y-12703031D02*
X11003515Y-12722079D01*
X11003515Y-12722079D02*
X11003515Y-12741127D01*
X11003515Y-12741127D02*
X10993991Y-12769698D01*
X10993991Y-12769698D02*
X10879706Y-12883984D01*
X10879706Y-12883984D02*
X11003515Y-12883984D01*
X11184468Y-12683984D02*
X11089230Y-12683984D01*
X11089230Y-12683984D02*
X11079706Y-12779222D01*
X11079706Y-12779222D02*
X11089230Y-12769698D01*
X11089230Y-12769698D02*
X11108277Y-12760174D01*
X11108277Y-12760174D02*
X11155896Y-12760174D01*
X11155896Y-12760174D02*
X11174944Y-12769698D01*
X11174944Y-12769698D02*
X11184468Y-12779222D01*
X11184468Y-12779222D02*
X11193991Y-12798269D01*
X11193991Y-12798269D02*
X11193991Y-12845888D01*
X11193991Y-12845888D02*
X11184468Y-12864936D01*
X11184468Y-12864936D02*
X11174944Y-12874460D01*
X11174944Y-12874460D02*
X11155896Y-12883984D01*
X11155896Y-12883984D02*
X11108277Y-12883984D01*
X11108277Y-12883984D02*
X11089230Y-12874460D01*
X11089230Y-12874460D02*
X11079706Y-12864936D01*
X11384468Y-12883984D02*
X11270182Y-12883984D01*
X11327325Y-12883984D02*
X11327325Y-12683984D01*
X11327325Y-12683984D02*
X11308277Y-12712555D01*
X11308277Y-12712555D02*
X11289229Y-12731603D01*
X11289229Y-12731603D02*
X11270182Y-12741127D01*
X11622563Y-12883984D02*
X11622563Y-12683984D01*
X11708277Y-12883984D02*
X11708277Y-12779222D01*
X11708277Y-12779222D02*
X11698753Y-12760174D01*
X11698753Y-12760174D02*
X11679706Y-12750650D01*
X11679706Y-12750650D02*
X11651134Y-12750650D01*
X11651134Y-12750650D02*
X11632087Y-12760174D01*
X11632087Y-12760174D02*
X11622563Y-12769698D01*
X11832087Y-12883984D02*
X11813039Y-12874460D01*
X11813039Y-12874460D02*
X11803515Y-12864936D01*
X11803515Y-12864936D02*
X11793991Y-12845888D01*
X11793991Y-12845888D02*
X11793991Y-12788746D01*
X11793991Y-12788746D02*
X11803515Y-12769698D01*
X11803515Y-12769698D02*
X11813039Y-12760174D01*
X11813039Y-12760174D02*
X11832087Y-12750650D01*
X11832087Y-12750650D02*
X11860658Y-12750650D01*
X11860658Y-12750650D02*
X11879706Y-12760174D01*
X11879706Y-12760174D02*
X11889230Y-12769698D01*
X11889230Y-12769698D02*
X11898753Y-12788746D01*
X11898753Y-12788746D02*
X11898753Y-12845888D01*
X11898753Y-12845888D02*
X11889230Y-12864936D01*
X11889230Y-12864936D02*
X11879706Y-12874460D01*
X11879706Y-12874460D02*
X11860658Y-12883984D01*
X11860658Y-12883984D02*
X11832087Y-12883984D01*
X12013039Y-12883984D02*
X11993991Y-12874460D01*
X11993991Y-12874460D02*
X11984468Y-12855412D01*
X11984468Y-12855412D02*
X11984468Y-12683984D01*
X12165420Y-12874460D02*
X12146372Y-12883984D01*
X12146372Y-12883984D02*
X12108277Y-12883984D01*
X12108277Y-12883984D02*
X12089230Y-12874460D01*
X12089230Y-12874460D02*
X12079706Y-12855412D01*
X12079706Y-12855412D02*
X12079706Y-12779222D01*
X12079706Y-12779222D02*
X12089230Y-12760174D01*
X12089230Y-12760174D02*
X12108277Y-12750650D01*
X12108277Y-12750650D02*
X12146372Y-12750650D01*
X12146372Y-12750650D02*
X12165420Y-12760174D01*
X12165420Y-12760174D02*
X12174944Y-12779222D01*
X12174944Y-12779222D02*
X12174944Y-12798269D01*
X12174944Y-12798269D02*
X12079706Y-12817317D01*
X12251134Y-12874460D02*
X12270182Y-12883984D01*
X12270182Y-12883984D02*
X12308277Y-12883984D01*
X12308277Y-12883984D02*
X12327325Y-12874460D01*
X12327325Y-12874460D02*
X12336849Y-12855412D01*
X12336849Y-12855412D02*
X12336849Y-12845888D01*
X12336849Y-12845888D02*
X12327325Y-12826841D01*
X12327325Y-12826841D02*
X12308277Y-12817317D01*
X12308277Y-12817317D02*
X12279706Y-12817317D01*
X12279706Y-12817317D02*
X12260658Y-12807793D01*
X12260658Y-12807793D02*
X12251134Y-12788746D01*
X12251134Y-12788746D02*
X12251134Y-12779222D01*
X12251134Y-12779222D02*
X12260658Y-12760174D01*
X12260658Y-12760174D02*
X12279706Y-12750650D01*
X12279706Y-12750650D02*
X12308277Y-12750650D01*
X12308277Y-12750650D02*
X12327325Y-12760174D01*
X12403515Y-12960174D02*
X12413039Y-12950650D01*
X12413039Y-12950650D02*
X12432087Y-12922079D01*
X12432087Y-12922079D02*
X12441611Y-12903031D01*
X12441611Y-12903031D02*
X12451134Y-12874460D01*
X12451134Y-12874460D02*
X12460658Y-12826841D01*
X12460658Y-12826841D02*
X12460658Y-12788746D01*
X12460658Y-12788746D02*
X12451134Y-12741127D01*
X12451134Y-12741127D02*
X12441611Y-12712555D01*
X12441611Y-12712555D02*
X12432087Y-12693508D01*
X12432087Y-12693508D02*
X12413039Y-12664936D01*
X12413039Y-12664936D02*
X12403515Y-12655412D01*
D12*
X7247500Y-13056500D02*
G75*
G02*
X7217500Y-13056500I-15000J0D01*
G01*
X7217500Y-13056500D02*
G75*
G02*
X7247500Y-13056500I15000J0D01*
G01*
D11*
X7546372Y-12947984D02*
X7565420Y-12947984D01*
X7565420Y-12947984D02*
X7584467Y-12957508D01*
X7584467Y-12957508D02*
X7593991Y-12967031D01*
X7593991Y-12967031D02*
X7603515Y-12986079D01*
X7603515Y-12986079D02*
X7613039Y-13024174D01*
X7613039Y-13024174D02*
X7613039Y-13071793D01*
X7613039Y-13071793D02*
X7603515Y-13109888D01*
X7603515Y-13109888D02*
X7593991Y-13128936D01*
X7593991Y-13128936D02*
X7584467Y-13138460D01*
X7584467Y-13138460D02*
X7565420Y-13147984D01*
X7565420Y-13147984D02*
X7546372Y-13147984D01*
X7546372Y-13147984D02*
X7527324Y-13138460D01*
X7527324Y-13138460D02*
X7517801Y-13128936D01*
X7517801Y-13128936D02*
X7508277Y-13109888D01*
X7508277Y-13109888D02*
X7498753Y-13071793D01*
X7498753Y-13071793D02*
X7498753Y-13024174D01*
X7498753Y-13024174D02*
X7508277Y-12986079D01*
X7508277Y-12986079D02*
X7517801Y-12967031D01*
X7517801Y-12967031D02*
X7527324Y-12957508D01*
X7527324Y-12957508D02*
X7546372Y-12947984D01*
X7698753Y-13128936D02*
X7708277Y-13138460D01*
X7708277Y-13138460D02*
X7698753Y-13147984D01*
X7698753Y-13147984D02*
X7689229Y-13138460D01*
X7689229Y-13138460D02*
X7698753Y-13128936D01*
X7698753Y-13128936D02*
X7698753Y-13147984D01*
X7774943Y-12947984D02*
X7898753Y-12947984D01*
X7898753Y-12947984D02*
X7832086Y-13024174D01*
X7832086Y-13024174D02*
X7860658Y-13024174D01*
X7860658Y-13024174D02*
X7879705Y-13033698D01*
X7879705Y-13033698D02*
X7889229Y-13043222D01*
X7889229Y-13043222D02*
X7898753Y-13062269D01*
X7898753Y-13062269D02*
X7898753Y-13109888D01*
X7898753Y-13109888D02*
X7889229Y-13128936D01*
X7889229Y-13128936D02*
X7879705Y-13138460D01*
X7879705Y-13138460D02*
X7860658Y-13147984D01*
X7860658Y-13147984D02*
X7803515Y-13147984D01*
X7803515Y-13147984D02*
X7784467Y-13138460D01*
X7784467Y-13138460D02*
X7774943Y-13128936D01*
X8022562Y-12947984D02*
X8041610Y-12947984D01*
X8041610Y-12947984D02*
X8060658Y-12957508D01*
X8060658Y-12957508D02*
X8070182Y-12967031D01*
X8070182Y-12967031D02*
X8079705Y-12986079D01*
X8079705Y-12986079D02*
X8089229Y-13024174D01*
X8089229Y-13024174D02*
X8089229Y-13071793D01*
X8089229Y-13071793D02*
X8079705Y-13109888D01*
X8079705Y-13109888D02*
X8070182Y-13128936D01*
X8070182Y-13128936D02*
X8060658Y-13138460D01*
X8060658Y-13138460D02*
X8041610Y-13147984D01*
X8041610Y-13147984D02*
X8022562Y-13147984D01*
X8022562Y-13147984D02*
X8003515Y-13138460D01*
X8003515Y-13138460D02*
X7993991Y-13128936D01*
X7993991Y-13128936D02*
X7984467Y-13109888D01*
X7984467Y-13109888D02*
X7974943Y-13071793D01*
X7974943Y-13071793D02*
X7974943Y-13024174D01*
X7974943Y-13024174D02*
X7984467Y-12986079D01*
X7984467Y-12986079D02*
X7993991Y-12967031D01*
X7993991Y-12967031D02*
X8003515Y-12957508D01*
X8003515Y-12957508D02*
X8022562Y-12947984D01*
X8213039Y-12947984D02*
X8232086Y-12947984D01*
X8232086Y-12947984D02*
X8251134Y-12957508D01*
X8251134Y-12957508D02*
X8260658Y-12967031D01*
X8260658Y-12967031D02*
X8270182Y-12986079D01*
X8270182Y-12986079D02*
X8279705Y-13024174D01*
X8279705Y-13024174D02*
X8279705Y-13071793D01*
X8279705Y-13071793D02*
X8270182Y-13109888D01*
X8270182Y-13109888D02*
X8260658Y-13128936D01*
X8260658Y-13128936D02*
X8251134Y-13138460D01*
X8251134Y-13138460D02*
X8232086Y-13147984D01*
X8232086Y-13147984D02*
X8213039Y-13147984D01*
X8213039Y-13147984D02*
X8193991Y-13138460D01*
X8193991Y-13138460D02*
X8184467Y-13128936D01*
X8184467Y-13128936D02*
X8174943Y-13109888D01*
X8174943Y-13109888D02*
X8165420Y-13071793D01*
X8165420Y-13071793D02*
X8165420Y-13024174D01*
X8165420Y-13024174D02*
X8174943Y-12986079D01*
X8174943Y-12986079D02*
X8184467Y-12967031D01*
X8184467Y-12967031D02*
X8193991Y-12957508D01*
X8193991Y-12957508D02*
X8213039Y-12947984D01*
X8365420Y-13147984D02*
X8365420Y-13014650D01*
X8365420Y-13033698D02*
X8374943Y-13024174D01*
X8374943Y-13024174D02*
X8393991Y-13014650D01*
X8393991Y-13014650D02*
X8422563Y-13014650D01*
X8422563Y-13014650D02*
X8441610Y-13024174D01*
X8441610Y-13024174D02*
X8451134Y-13043222D01*
X8451134Y-13043222D02*
X8451134Y-13147984D01*
X8451134Y-13043222D02*
X8460658Y-13024174D01*
X8460658Y-13024174D02*
X8479705Y-13014650D01*
X8479705Y-13014650D02*
X8508277Y-13014650D01*
X8508277Y-13014650D02*
X8527325Y-13024174D01*
X8527325Y-13024174D02*
X8536848Y-13043222D01*
X8536848Y-13043222D02*
X8536848Y-13147984D01*
X8632086Y-13147984D02*
X8632086Y-13014650D01*
X8632086Y-13033698D02*
X8641610Y-13024174D01*
X8641610Y-13024174D02*
X8660658Y-13014650D01*
X8660658Y-13014650D02*
X8689229Y-13014650D01*
X8689229Y-13014650D02*
X8708277Y-13024174D01*
X8708277Y-13024174D02*
X8717801Y-13043222D01*
X8717801Y-13043222D02*
X8717801Y-13147984D01*
X8717801Y-13043222D02*
X8727325Y-13024174D01*
X8727325Y-13024174D02*
X8746372Y-13014650D01*
X8746372Y-13014650D02*
X8774944Y-13014650D01*
X8774944Y-13014650D02*
X8793991Y-13024174D01*
X8793991Y-13024174D02*
X8803515Y-13043222D01*
X8803515Y-13043222D02*
X8803515Y-13147984D01*
X9193991Y-12938460D02*
X9022563Y-13195603D01*
X9451134Y-12947984D02*
X9470182Y-12947984D01*
X9470182Y-12947984D02*
X9489229Y-12957508D01*
X9489229Y-12957508D02*
X9498753Y-12967031D01*
X9498753Y-12967031D02*
X9508277Y-12986079D01*
X9508277Y-12986079D02*
X9517801Y-13024174D01*
X9517801Y-13024174D02*
X9517801Y-13071793D01*
X9517801Y-13071793D02*
X9508277Y-13109888D01*
X9508277Y-13109888D02*
X9498753Y-13128936D01*
X9498753Y-13128936D02*
X9489229Y-13138460D01*
X9489229Y-13138460D02*
X9470182Y-13147984D01*
X9470182Y-13147984D02*
X9451134Y-13147984D01*
X9451134Y-13147984D02*
X9432087Y-13138460D01*
X9432087Y-13138460D02*
X9422563Y-13128936D01*
X9422563Y-13128936D02*
X9413039Y-13109888D01*
X9413039Y-13109888D02*
X9403515Y-13071793D01*
X9403515Y-13071793D02*
X9403515Y-13024174D01*
X9403515Y-13024174D02*
X9413039Y-12986079D01*
X9413039Y-12986079D02*
X9422563Y-12967031D01*
X9422563Y-12967031D02*
X9432087Y-12957508D01*
X9432087Y-12957508D02*
X9451134Y-12947984D01*
X9603515Y-13128936D02*
X9613039Y-13138460D01*
X9613039Y-13138460D02*
X9603515Y-13147984D01*
X9603515Y-13147984D02*
X9593991Y-13138460D01*
X9593991Y-13138460D02*
X9603515Y-13128936D01*
X9603515Y-13128936D02*
X9603515Y-13147984D01*
X9736848Y-12947984D02*
X9755896Y-12947984D01*
X9755896Y-12947984D02*
X9774944Y-12957508D01*
X9774944Y-12957508D02*
X9784468Y-12967031D01*
X9784468Y-12967031D02*
X9793991Y-12986079D01*
X9793991Y-12986079D02*
X9803515Y-13024174D01*
X9803515Y-13024174D02*
X9803515Y-13071793D01*
X9803515Y-13071793D02*
X9793991Y-13109888D01*
X9793991Y-13109888D02*
X9784468Y-13128936D01*
X9784468Y-13128936D02*
X9774944Y-13138460D01*
X9774944Y-13138460D02*
X9755896Y-13147984D01*
X9755896Y-13147984D02*
X9736848Y-13147984D01*
X9736848Y-13147984D02*
X9717801Y-13138460D01*
X9717801Y-13138460D02*
X9708277Y-13128936D01*
X9708277Y-13128936D02*
X9698753Y-13109888D01*
X9698753Y-13109888D02*
X9689229Y-13071793D01*
X9689229Y-13071793D02*
X9689229Y-13024174D01*
X9689229Y-13024174D02*
X9698753Y-12986079D01*
X9698753Y-12986079D02*
X9708277Y-12967031D01*
X9708277Y-12967031D02*
X9717801Y-12957508D01*
X9717801Y-12957508D02*
X9736848Y-12947984D01*
X9993991Y-13147984D02*
X9879706Y-13147984D01*
X9936848Y-13147984D02*
X9936848Y-12947984D01*
X9936848Y-12947984D02*
X9917801Y-12976555D01*
X9917801Y-12976555D02*
X9898753Y-12995603D01*
X9898753Y-12995603D02*
X9879706Y-13005127D01*
X10184468Y-13147984D02*
X10070182Y-13147984D01*
X10127325Y-13147984D02*
X10127325Y-12947984D01*
X10127325Y-12947984D02*
X10108277Y-12976555D01*
X10108277Y-12976555D02*
X10089229Y-12995603D01*
X10089229Y-12995603D02*
X10070182Y-13005127D01*
X10298753Y-13033698D02*
X10279706Y-13024174D01*
X10279706Y-13024174D02*
X10270182Y-13014650D01*
X10270182Y-13014650D02*
X10260658Y-12995603D01*
X10260658Y-12995603D02*
X10260658Y-12986079D01*
X10260658Y-12986079D02*
X10270182Y-12967031D01*
X10270182Y-12967031D02*
X10279706Y-12957508D01*
X10279706Y-12957508D02*
X10298753Y-12947984D01*
X10298753Y-12947984D02*
X10336849Y-12947984D01*
X10336849Y-12947984D02*
X10355896Y-12957508D01*
X10355896Y-12957508D02*
X10365420Y-12967031D01*
X10365420Y-12967031D02*
X10374944Y-12986079D01*
X10374944Y-12986079D02*
X10374944Y-12995603D01*
X10374944Y-12995603D02*
X10365420Y-13014650D01*
X10365420Y-13014650D02*
X10355896Y-13024174D01*
X10355896Y-13024174D02*
X10336849Y-13033698D01*
X10336849Y-13033698D02*
X10298753Y-13033698D01*
X10298753Y-13033698D02*
X10279706Y-13043222D01*
X10279706Y-13043222D02*
X10270182Y-13052746D01*
X10270182Y-13052746D02*
X10260658Y-13071793D01*
X10260658Y-13071793D02*
X10260658Y-13109888D01*
X10260658Y-13109888D02*
X10270182Y-13128936D01*
X10270182Y-13128936D02*
X10279706Y-13138460D01*
X10279706Y-13138460D02*
X10298753Y-13147984D01*
X10298753Y-13147984D02*
X10336849Y-13147984D01*
X10336849Y-13147984D02*
X10355896Y-13138460D01*
X10355896Y-13138460D02*
X10365420Y-13128936D01*
X10365420Y-13128936D02*
X10374944Y-13109888D01*
X10374944Y-13109888D02*
X10374944Y-13071793D01*
X10374944Y-13071793D02*
X10365420Y-13052746D01*
X10365420Y-13052746D02*
X10355896Y-13043222D01*
X10355896Y-13043222D02*
X10336849Y-13033698D01*
X10451134Y-12947984D02*
X10451134Y-12986079D01*
X10527325Y-12947984D02*
X10527325Y-12986079D01*
X10822563Y-13224174D02*
X10813039Y-13214650D01*
X10813039Y-13214650D02*
X10793991Y-13186079D01*
X10793991Y-13186079D02*
X10784468Y-13167031D01*
X10784468Y-13167031D02*
X10774944Y-13138460D01*
X10774944Y-13138460D02*
X10765420Y-13090841D01*
X10765420Y-13090841D02*
X10765420Y-13052746D01*
X10765420Y-13052746D02*
X10774944Y-13005127D01*
X10774944Y-13005127D02*
X10784468Y-12976555D01*
X10784468Y-12976555D02*
X10793991Y-12957508D01*
X10793991Y-12957508D02*
X10813039Y-12928936D01*
X10813039Y-12928936D02*
X10822563Y-12919412D01*
X11003515Y-13147984D02*
X10889230Y-13147984D01*
X10946372Y-13147984D02*
X10946372Y-12947984D01*
X10946372Y-12947984D02*
X10927325Y-12976555D01*
X10927325Y-12976555D02*
X10908277Y-12995603D01*
X10908277Y-12995603D02*
X10889230Y-13005127D01*
X11117801Y-13033698D02*
X11098753Y-13024174D01*
X11098753Y-13024174D02*
X11089230Y-13014650D01*
X11089230Y-13014650D02*
X11079706Y-12995603D01*
X11079706Y-12995603D02*
X11079706Y-12986079D01*
X11079706Y-12986079D02*
X11089230Y-12967031D01*
X11089230Y-12967031D02*
X11098753Y-12957508D01*
X11098753Y-12957508D02*
X11117801Y-12947984D01*
X11117801Y-12947984D02*
X11155896Y-12947984D01*
X11155896Y-12947984D02*
X11174944Y-12957508D01*
X11174944Y-12957508D02*
X11184468Y-12967031D01*
X11184468Y-12967031D02*
X11193991Y-12986079D01*
X11193991Y-12986079D02*
X11193991Y-12995603D01*
X11193991Y-12995603D02*
X11184468Y-13014650D01*
X11184468Y-13014650D02*
X11174944Y-13024174D01*
X11174944Y-13024174D02*
X11155896Y-13033698D01*
X11155896Y-13033698D02*
X11117801Y-13033698D01*
X11117801Y-13033698D02*
X11098753Y-13043222D01*
X11098753Y-13043222D02*
X11089230Y-13052746D01*
X11089230Y-13052746D02*
X11079706Y-13071793D01*
X11079706Y-13071793D02*
X11079706Y-13109888D01*
X11079706Y-13109888D02*
X11089230Y-13128936D01*
X11089230Y-13128936D02*
X11098753Y-13138460D01*
X11098753Y-13138460D02*
X11117801Y-13147984D01*
X11117801Y-13147984D02*
X11155896Y-13147984D01*
X11155896Y-13147984D02*
X11174944Y-13138460D01*
X11174944Y-13138460D02*
X11184468Y-13128936D01*
X11184468Y-13128936D02*
X11193991Y-13109888D01*
X11193991Y-13109888D02*
X11193991Y-13071793D01*
X11193991Y-13071793D02*
X11184468Y-13052746D01*
X11184468Y-13052746D02*
X11174944Y-13043222D01*
X11174944Y-13043222D02*
X11155896Y-13033698D01*
X11432087Y-13147984D02*
X11432087Y-12947984D01*
X11517801Y-13147984D02*
X11517801Y-13043222D01*
X11517801Y-13043222D02*
X11508277Y-13024174D01*
X11508277Y-13024174D02*
X11489230Y-13014650D01*
X11489230Y-13014650D02*
X11460658Y-13014650D01*
X11460658Y-13014650D02*
X11441610Y-13024174D01*
X11441610Y-13024174D02*
X11432087Y-13033698D01*
X11641610Y-13147984D02*
X11622563Y-13138460D01*
X11622563Y-13138460D02*
X11613039Y-13128936D01*
X11613039Y-13128936D02*
X11603515Y-13109888D01*
X11603515Y-13109888D02*
X11603515Y-13052746D01*
X11603515Y-13052746D02*
X11613039Y-13033698D01*
X11613039Y-13033698D02*
X11622563Y-13024174D01*
X11622563Y-13024174D02*
X11641610Y-13014650D01*
X11641610Y-13014650D02*
X11670182Y-13014650D01*
X11670182Y-13014650D02*
X11689230Y-13024174D01*
X11689230Y-13024174D02*
X11698753Y-13033698D01*
X11698753Y-13033698D02*
X11708277Y-13052746D01*
X11708277Y-13052746D02*
X11708277Y-13109888D01*
X11708277Y-13109888D02*
X11698753Y-13128936D01*
X11698753Y-13128936D02*
X11689230Y-13138460D01*
X11689230Y-13138460D02*
X11670182Y-13147984D01*
X11670182Y-13147984D02*
X11641610Y-13147984D01*
X11822563Y-13147984D02*
X11803515Y-13138460D01*
X11803515Y-13138460D02*
X11793991Y-13119412D01*
X11793991Y-13119412D02*
X11793991Y-12947984D01*
X11974944Y-13138460D02*
X11955896Y-13147984D01*
X11955896Y-13147984D02*
X11917801Y-13147984D01*
X11917801Y-13147984D02*
X11898753Y-13138460D01*
X11898753Y-13138460D02*
X11889230Y-13119412D01*
X11889230Y-13119412D02*
X11889230Y-13043222D01*
X11889230Y-13043222D02*
X11898753Y-13024174D01*
X11898753Y-13024174D02*
X11917801Y-13014650D01*
X11917801Y-13014650D02*
X11955896Y-13014650D01*
X11955896Y-13014650D02*
X11974944Y-13024174D01*
X11974944Y-13024174D02*
X11984468Y-13043222D01*
X11984468Y-13043222D02*
X11984468Y-13062269D01*
X11984468Y-13062269D02*
X11889230Y-13081317D01*
X12060658Y-13138460D02*
X12079706Y-13147984D01*
X12079706Y-13147984D02*
X12117801Y-13147984D01*
X12117801Y-13147984D02*
X12136849Y-13138460D01*
X12136849Y-13138460D02*
X12146372Y-13119412D01*
X12146372Y-13119412D02*
X12146372Y-13109888D01*
X12146372Y-13109888D02*
X12136849Y-13090841D01*
X12136849Y-13090841D02*
X12117801Y-13081317D01*
X12117801Y-13081317D02*
X12089230Y-13081317D01*
X12089230Y-13081317D02*
X12070182Y-13071793D01*
X12070182Y-13071793D02*
X12060658Y-13052746D01*
X12060658Y-13052746D02*
X12060658Y-13043222D01*
X12060658Y-13043222D02*
X12070182Y-13024174D01*
X12070182Y-13024174D02*
X12089230Y-13014650D01*
X12089230Y-13014650D02*
X12117801Y-13014650D01*
X12117801Y-13014650D02*
X12136849Y-13024174D01*
X12213039Y-13224174D02*
X12222563Y-13214650D01*
X12222563Y-13214650D02*
X12241611Y-13186079D01*
X12241611Y-13186079D02*
X12251134Y-13167031D01*
X12251134Y-13167031D02*
X12260658Y-13138460D01*
X12260658Y-13138460D02*
X12270182Y-13090841D01*
X12270182Y-13090841D02*
X12270182Y-13052746D01*
X12270182Y-13052746D02*
X12260658Y-13005127D01*
X12260658Y-13005127D02*
X12251134Y-12976555D01*
X12251134Y-12976555D02*
X12241611Y-12957508D01*
X12241611Y-12957508D02*
X12222563Y-12928936D01*
X12222563Y-12928936D02*
X12213039Y-12919412D01*
D12*
X7197500Y-13270500D02*
X7197500Y-13370500D01*
X7147500Y-13320500D02*
X7247500Y-13320500D01*
D11*
X7613039Y-13411984D02*
X7498753Y-13411984D01*
X7555896Y-13411984D02*
X7555896Y-13211984D01*
X7555896Y-13211984D02*
X7536848Y-13240555D01*
X7536848Y-13240555D02*
X7517801Y-13259603D01*
X7517801Y-13259603D02*
X7498753Y-13269127D01*
X7698753Y-13392936D02*
X7708277Y-13402460D01*
X7708277Y-13402460D02*
X7698753Y-13411984D01*
X7698753Y-13411984D02*
X7689229Y-13402460D01*
X7689229Y-13402460D02*
X7698753Y-13392936D01*
X7698753Y-13392936D02*
X7698753Y-13411984D01*
X7832086Y-13211984D02*
X7851134Y-13211984D01*
X7851134Y-13211984D02*
X7870182Y-13221508D01*
X7870182Y-13221508D02*
X7879705Y-13231031D01*
X7879705Y-13231031D02*
X7889229Y-13250079D01*
X7889229Y-13250079D02*
X7898753Y-13288174D01*
X7898753Y-13288174D02*
X7898753Y-13335793D01*
X7898753Y-13335793D02*
X7889229Y-13373888D01*
X7889229Y-13373888D02*
X7879705Y-13392936D01*
X7879705Y-13392936D02*
X7870182Y-13402460D01*
X7870182Y-13402460D02*
X7851134Y-13411984D01*
X7851134Y-13411984D02*
X7832086Y-13411984D01*
X7832086Y-13411984D02*
X7813039Y-13402460D01*
X7813039Y-13402460D02*
X7803515Y-13392936D01*
X7803515Y-13392936D02*
X7793991Y-13373888D01*
X7793991Y-13373888D02*
X7784467Y-13335793D01*
X7784467Y-13335793D02*
X7784467Y-13288174D01*
X7784467Y-13288174D02*
X7793991Y-13250079D01*
X7793991Y-13250079D02*
X7803515Y-13231031D01*
X7803515Y-13231031D02*
X7813039Y-13221508D01*
X7813039Y-13221508D02*
X7832086Y-13211984D01*
X8022562Y-13211984D02*
X8041610Y-13211984D01*
X8041610Y-13211984D02*
X8060658Y-13221508D01*
X8060658Y-13221508D02*
X8070182Y-13231031D01*
X8070182Y-13231031D02*
X8079705Y-13250079D01*
X8079705Y-13250079D02*
X8089229Y-13288174D01*
X8089229Y-13288174D02*
X8089229Y-13335793D01*
X8089229Y-13335793D02*
X8079705Y-13373888D01*
X8079705Y-13373888D02*
X8070182Y-13392936D01*
X8070182Y-13392936D02*
X8060658Y-13402460D01*
X8060658Y-13402460D02*
X8041610Y-13411984D01*
X8041610Y-13411984D02*
X8022562Y-13411984D01*
X8022562Y-13411984D02*
X8003515Y-13402460D01*
X8003515Y-13402460D02*
X7993991Y-13392936D01*
X7993991Y-13392936D02*
X7984467Y-13373888D01*
X7984467Y-13373888D02*
X7974943Y-13335793D01*
X7974943Y-13335793D02*
X7974943Y-13288174D01*
X7974943Y-13288174D02*
X7984467Y-13250079D01*
X7984467Y-13250079D02*
X7993991Y-13231031D01*
X7993991Y-13231031D02*
X8003515Y-13221508D01*
X8003515Y-13221508D02*
X8022562Y-13211984D01*
X8213039Y-13211984D02*
X8232086Y-13211984D01*
X8232086Y-13211984D02*
X8251134Y-13221508D01*
X8251134Y-13221508D02*
X8260658Y-13231031D01*
X8260658Y-13231031D02*
X8270182Y-13250079D01*
X8270182Y-13250079D02*
X8279705Y-13288174D01*
X8279705Y-13288174D02*
X8279705Y-13335793D01*
X8279705Y-13335793D02*
X8270182Y-13373888D01*
X8270182Y-13373888D02*
X8260658Y-13392936D01*
X8260658Y-13392936D02*
X8251134Y-13402460D01*
X8251134Y-13402460D02*
X8232086Y-13411984D01*
X8232086Y-13411984D02*
X8213039Y-13411984D01*
X8213039Y-13411984D02*
X8193991Y-13402460D01*
X8193991Y-13402460D02*
X8184467Y-13392936D01*
X8184467Y-13392936D02*
X8174943Y-13373888D01*
X8174943Y-13373888D02*
X8165420Y-13335793D01*
X8165420Y-13335793D02*
X8165420Y-13288174D01*
X8165420Y-13288174D02*
X8174943Y-13250079D01*
X8174943Y-13250079D02*
X8184467Y-13231031D01*
X8184467Y-13231031D02*
X8193991Y-13221508D01*
X8193991Y-13221508D02*
X8213039Y-13211984D01*
X8365420Y-13411984D02*
X8365420Y-13278650D01*
X8365420Y-13297698D02*
X8374943Y-13288174D01*
X8374943Y-13288174D02*
X8393991Y-13278650D01*
X8393991Y-13278650D02*
X8422563Y-13278650D01*
X8422563Y-13278650D02*
X8441610Y-13288174D01*
X8441610Y-13288174D02*
X8451134Y-13307222D01*
X8451134Y-13307222D02*
X8451134Y-13411984D01*
X8451134Y-13307222D02*
X8460658Y-13288174D01*
X8460658Y-13288174D02*
X8479705Y-13278650D01*
X8479705Y-13278650D02*
X8508277Y-13278650D01*
X8508277Y-13278650D02*
X8527325Y-13288174D01*
X8527325Y-13288174D02*
X8536848Y-13307222D01*
X8536848Y-13307222D02*
X8536848Y-13411984D01*
X8632086Y-13411984D02*
X8632086Y-13278650D01*
X8632086Y-13297698D02*
X8641610Y-13288174D01*
X8641610Y-13288174D02*
X8660658Y-13278650D01*
X8660658Y-13278650D02*
X8689229Y-13278650D01*
X8689229Y-13278650D02*
X8708277Y-13288174D01*
X8708277Y-13288174D02*
X8717801Y-13307222D01*
X8717801Y-13307222D02*
X8717801Y-13411984D01*
X8717801Y-13307222D02*
X8727325Y-13288174D01*
X8727325Y-13288174D02*
X8746372Y-13278650D01*
X8746372Y-13278650D02*
X8774944Y-13278650D01*
X8774944Y-13278650D02*
X8793991Y-13288174D01*
X8793991Y-13288174D02*
X8803515Y-13307222D01*
X8803515Y-13307222D02*
X8803515Y-13411984D01*
X9193991Y-13202460D02*
X9022563Y-13459603D01*
X9451134Y-13211984D02*
X9470182Y-13211984D01*
X9470182Y-13211984D02*
X9489229Y-13221508D01*
X9489229Y-13221508D02*
X9498753Y-13231031D01*
X9498753Y-13231031D02*
X9508277Y-13250079D01*
X9508277Y-13250079D02*
X9517801Y-13288174D01*
X9517801Y-13288174D02*
X9517801Y-13335793D01*
X9517801Y-13335793D02*
X9508277Y-13373888D01*
X9508277Y-13373888D02*
X9498753Y-13392936D01*
X9498753Y-13392936D02*
X9489229Y-13402460D01*
X9489229Y-13402460D02*
X9470182Y-13411984D01*
X9470182Y-13411984D02*
X9451134Y-13411984D01*
X9451134Y-13411984D02*
X9432087Y-13402460D01*
X9432087Y-13402460D02*
X9422563Y-13392936D01*
X9422563Y-13392936D02*
X9413039Y-13373888D01*
X9413039Y-13373888D02*
X9403515Y-13335793D01*
X9403515Y-13335793D02*
X9403515Y-13288174D01*
X9403515Y-13288174D02*
X9413039Y-13250079D01*
X9413039Y-13250079D02*
X9422563Y-13231031D01*
X9422563Y-13231031D02*
X9432087Y-13221508D01*
X9432087Y-13221508D02*
X9451134Y-13211984D01*
X9603515Y-13392936D02*
X9613039Y-13402460D01*
X9613039Y-13402460D02*
X9603515Y-13411984D01*
X9603515Y-13411984D02*
X9593991Y-13402460D01*
X9593991Y-13402460D02*
X9603515Y-13392936D01*
X9603515Y-13392936D02*
X9603515Y-13411984D01*
X9736848Y-13211984D02*
X9755896Y-13211984D01*
X9755896Y-13211984D02*
X9774944Y-13221508D01*
X9774944Y-13221508D02*
X9784468Y-13231031D01*
X9784468Y-13231031D02*
X9793991Y-13250079D01*
X9793991Y-13250079D02*
X9803515Y-13288174D01*
X9803515Y-13288174D02*
X9803515Y-13335793D01*
X9803515Y-13335793D02*
X9793991Y-13373888D01*
X9793991Y-13373888D02*
X9784468Y-13392936D01*
X9784468Y-13392936D02*
X9774944Y-13402460D01*
X9774944Y-13402460D02*
X9755896Y-13411984D01*
X9755896Y-13411984D02*
X9736848Y-13411984D01*
X9736848Y-13411984D02*
X9717801Y-13402460D01*
X9717801Y-13402460D02*
X9708277Y-13392936D01*
X9708277Y-13392936D02*
X9698753Y-13373888D01*
X9698753Y-13373888D02*
X9689229Y-13335793D01*
X9689229Y-13335793D02*
X9689229Y-13288174D01*
X9689229Y-13288174D02*
X9698753Y-13250079D01*
X9698753Y-13250079D02*
X9708277Y-13231031D01*
X9708277Y-13231031D02*
X9717801Y-13221508D01*
X9717801Y-13221508D02*
X9736848Y-13211984D01*
X9870182Y-13211984D02*
X9993991Y-13211984D01*
X9993991Y-13211984D02*
X9927325Y-13288174D01*
X9927325Y-13288174D02*
X9955896Y-13288174D01*
X9955896Y-13288174D02*
X9974944Y-13297698D01*
X9974944Y-13297698D02*
X9984468Y-13307222D01*
X9984468Y-13307222D02*
X9993991Y-13326269D01*
X9993991Y-13326269D02*
X9993991Y-13373888D01*
X9993991Y-13373888D02*
X9984468Y-13392936D01*
X9984468Y-13392936D02*
X9974944Y-13402460D01*
X9974944Y-13402460D02*
X9955896Y-13411984D01*
X9955896Y-13411984D02*
X9898753Y-13411984D01*
X9898753Y-13411984D02*
X9879706Y-13402460D01*
X9879706Y-13402460D02*
X9870182Y-13392936D01*
X10089229Y-13411984D02*
X10127325Y-13411984D01*
X10127325Y-13411984D02*
X10146372Y-13402460D01*
X10146372Y-13402460D02*
X10155896Y-13392936D01*
X10155896Y-13392936D02*
X10174944Y-13364365D01*
X10174944Y-13364365D02*
X10184468Y-13326269D01*
X10184468Y-13326269D02*
X10184468Y-13250079D01*
X10184468Y-13250079D02*
X10174944Y-13231031D01*
X10174944Y-13231031D02*
X10165420Y-13221508D01*
X10165420Y-13221508D02*
X10146372Y-13211984D01*
X10146372Y-13211984D02*
X10108277Y-13211984D01*
X10108277Y-13211984D02*
X10089229Y-13221508D01*
X10089229Y-13221508D02*
X10079706Y-13231031D01*
X10079706Y-13231031D02*
X10070182Y-13250079D01*
X10070182Y-13250079D02*
X10070182Y-13297698D01*
X10070182Y-13297698D02*
X10079706Y-13316746D01*
X10079706Y-13316746D02*
X10089229Y-13326269D01*
X10089229Y-13326269D02*
X10108277Y-13335793D01*
X10108277Y-13335793D02*
X10146372Y-13335793D01*
X10146372Y-13335793D02*
X10165420Y-13326269D01*
X10165420Y-13326269D02*
X10174944Y-13316746D01*
X10174944Y-13316746D02*
X10184468Y-13297698D01*
X10355896Y-13278650D02*
X10355896Y-13411984D01*
X10308277Y-13202460D02*
X10260658Y-13345317D01*
X10260658Y-13345317D02*
X10384468Y-13345317D01*
X10451134Y-13211984D02*
X10451134Y-13250079D01*
X10527325Y-13211984D02*
X10527325Y-13250079D01*
X10822563Y-13488174D02*
X10813039Y-13478650D01*
X10813039Y-13478650D02*
X10793991Y-13450079D01*
X10793991Y-13450079D02*
X10784468Y-13431031D01*
X10784468Y-13431031D02*
X10774944Y-13402460D01*
X10774944Y-13402460D02*
X10765420Y-13354841D01*
X10765420Y-13354841D02*
X10765420Y-13316746D01*
X10765420Y-13316746D02*
X10774944Y-13269127D01*
X10774944Y-13269127D02*
X10784468Y-13240555D01*
X10784468Y-13240555D02*
X10793991Y-13221508D01*
X10793991Y-13221508D02*
X10813039Y-13192936D01*
X10813039Y-13192936D02*
X10822563Y-13183412D01*
X10889230Y-13231031D02*
X10898753Y-13221508D01*
X10898753Y-13221508D02*
X10917801Y-13211984D01*
X10917801Y-13211984D02*
X10965420Y-13211984D01*
X10965420Y-13211984D02*
X10984468Y-13221508D01*
X10984468Y-13221508D02*
X10993991Y-13231031D01*
X10993991Y-13231031D02*
X11003515Y-13250079D01*
X11003515Y-13250079D02*
X11003515Y-13269127D01*
X11003515Y-13269127D02*
X10993991Y-13297698D01*
X10993991Y-13297698D02*
X10879706Y-13411984D01*
X10879706Y-13411984D02*
X11003515Y-13411984D01*
X11174944Y-13278650D02*
X11174944Y-13411984D01*
X11127325Y-13202460D02*
X11079706Y-13345317D01*
X11079706Y-13345317D02*
X11203515Y-13345317D01*
X11432087Y-13411984D02*
X11432087Y-13211984D01*
X11517801Y-13411984D02*
X11517801Y-13307222D01*
X11517801Y-13307222D02*
X11508277Y-13288174D01*
X11508277Y-13288174D02*
X11489230Y-13278650D01*
X11489230Y-13278650D02*
X11460658Y-13278650D01*
X11460658Y-13278650D02*
X11441610Y-13288174D01*
X11441610Y-13288174D02*
X11432087Y-13297698D01*
X11641610Y-13411984D02*
X11622563Y-13402460D01*
X11622563Y-13402460D02*
X11613039Y-13392936D01*
X11613039Y-13392936D02*
X11603515Y-13373888D01*
X11603515Y-13373888D02*
X11603515Y-13316746D01*
X11603515Y-13316746D02*
X11613039Y-13297698D01*
X11613039Y-13297698D02*
X11622563Y-13288174D01*
X11622563Y-13288174D02*
X11641610Y-13278650D01*
X11641610Y-13278650D02*
X11670182Y-13278650D01*
X11670182Y-13278650D02*
X11689230Y-13288174D01*
X11689230Y-13288174D02*
X11698753Y-13297698D01*
X11698753Y-13297698D02*
X11708277Y-13316746D01*
X11708277Y-13316746D02*
X11708277Y-13373888D01*
X11708277Y-13373888D02*
X11698753Y-13392936D01*
X11698753Y-13392936D02*
X11689230Y-13402460D01*
X11689230Y-13402460D02*
X11670182Y-13411984D01*
X11670182Y-13411984D02*
X11641610Y-13411984D01*
X11822563Y-13411984D02*
X11803515Y-13402460D01*
X11803515Y-13402460D02*
X11793991Y-13383412D01*
X11793991Y-13383412D02*
X11793991Y-13211984D01*
X11974944Y-13402460D02*
X11955896Y-13411984D01*
X11955896Y-13411984D02*
X11917801Y-13411984D01*
X11917801Y-13411984D02*
X11898753Y-13402460D01*
X11898753Y-13402460D02*
X11889230Y-13383412D01*
X11889230Y-13383412D02*
X11889230Y-13307222D01*
X11889230Y-13307222D02*
X11898753Y-13288174D01*
X11898753Y-13288174D02*
X11917801Y-13278650D01*
X11917801Y-13278650D02*
X11955896Y-13278650D01*
X11955896Y-13278650D02*
X11974944Y-13288174D01*
X11974944Y-13288174D02*
X11984468Y-13307222D01*
X11984468Y-13307222D02*
X11984468Y-13326269D01*
X11984468Y-13326269D02*
X11889230Y-13345317D01*
X12060658Y-13402460D02*
X12079706Y-13411984D01*
X12079706Y-13411984D02*
X12117801Y-13411984D01*
X12117801Y-13411984D02*
X12136849Y-13402460D01*
X12136849Y-13402460D02*
X12146372Y-13383412D01*
X12146372Y-13383412D02*
X12146372Y-13373888D01*
X12146372Y-13373888D02*
X12136849Y-13354841D01*
X12136849Y-13354841D02*
X12117801Y-13345317D01*
X12117801Y-13345317D02*
X12089230Y-13345317D01*
X12089230Y-13345317D02*
X12070182Y-13335793D01*
X12070182Y-13335793D02*
X12060658Y-13316746D01*
X12060658Y-13316746D02*
X12060658Y-13307222D01*
X12060658Y-13307222D02*
X12070182Y-13288174D01*
X12070182Y-13288174D02*
X12089230Y-13278650D01*
X12089230Y-13278650D02*
X12117801Y-13278650D01*
X12117801Y-13278650D02*
X12136849Y-13288174D01*
X12213039Y-13488174D02*
X12222563Y-13478650D01*
X12222563Y-13478650D02*
X12241611Y-13450079D01*
X12241611Y-13450079D02*
X12251134Y-13431031D01*
X12251134Y-13431031D02*
X12260658Y-13402460D01*
X12260658Y-13402460D02*
X12270182Y-13354841D01*
X12270182Y-13354841D02*
X12270182Y-13316746D01*
X12270182Y-13316746D02*
X12260658Y-13269127D01*
X12260658Y-13269127D02*
X12251134Y-13240555D01*
X12251134Y-13240555D02*
X12241611Y-13221508D01*
X12241611Y-13221508D02*
X12222563Y-13192936D01*
X12222563Y-13192936D02*
X12213039Y-13183412D01*
X7218211Y-13655211D02*
X7218211Y-13513789D01*
X7076789Y-13513789D01*
X7076789Y-13655211D01*
X7218211Y-13655211D01*
X7489229Y-13475984D02*
X7613039Y-13475984D01*
X7613039Y-13475984D02*
X7546372Y-13552174D01*
X7546372Y-13552174D02*
X7574943Y-13552174D01*
X7574943Y-13552174D02*
X7593991Y-13561698D01*
X7593991Y-13561698D02*
X7603515Y-13571222D01*
X7603515Y-13571222D02*
X7613039Y-13590269D01*
X7613039Y-13590269D02*
X7613039Y-13637888D01*
X7613039Y-13637888D02*
X7603515Y-13656936D01*
X7603515Y-13656936D02*
X7593991Y-13666460D01*
X7593991Y-13666460D02*
X7574943Y-13675984D01*
X7574943Y-13675984D02*
X7517801Y-13675984D01*
X7517801Y-13675984D02*
X7498753Y-13666460D01*
X7498753Y-13666460D02*
X7489229Y-13656936D01*
X7698753Y-13656936D02*
X7708277Y-13666460D01*
X7708277Y-13666460D02*
X7698753Y-13675984D01*
X7698753Y-13675984D02*
X7689229Y-13666460D01*
X7689229Y-13666460D02*
X7698753Y-13656936D01*
X7698753Y-13656936D02*
X7698753Y-13675984D01*
X7784467Y-13495031D02*
X7793991Y-13485508D01*
X7793991Y-13485508D02*
X7813039Y-13475984D01*
X7813039Y-13475984D02*
X7860658Y-13475984D01*
X7860658Y-13475984D02*
X7879705Y-13485508D01*
X7879705Y-13485508D02*
X7889229Y-13495031D01*
X7889229Y-13495031D02*
X7898753Y-13514079D01*
X7898753Y-13514079D02*
X7898753Y-13533127D01*
X7898753Y-13533127D02*
X7889229Y-13561698D01*
X7889229Y-13561698D02*
X7774943Y-13675984D01*
X7774943Y-13675984D02*
X7898753Y-13675984D01*
X8022562Y-13475984D02*
X8041610Y-13475984D01*
X8041610Y-13475984D02*
X8060658Y-13485508D01*
X8060658Y-13485508D02*
X8070182Y-13495031D01*
X8070182Y-13495031D02*
X8079705Y-13514079D01*
X8079705Y-13514079D02*
X8089229Y-13552174D01*
X8089229Y-13552174D02*
X8089229Y-13599793D01*
X8089229Y-13599793D02*
X8079705Y-13637888D01*
X8079705Y-13637888D02*
X8070182Y-13656936D01*
X8070182Y-13656936D02*
X8060658Y-13666460D01*
X8060658Y-13666460D02*
X8041610Y-13675984D01*
X8041610Y-13675984D02*
X8022562Y-13675984D01*
X8022562Y-13675984D02*
X8003515Y-13666460D01*
X8003515Y-13666460D02*
X7993991Y-13656936D01*
X7993991Y-13656936D02*
X7984467Y-13637888D01*
X7984467Y-13637888D02*
X7974943Y-13599793D01*
X7974943Y-13599793D02*
X7974943Y-13552174D01*
X7974943Y-13552174D02*
X7984467Y-13514079D01*
X7984467Y-13514079D02*
X7993991Y-13495031D01*
X7993991Y-13495031D02*
X8003515Y-13485508D01*
X8003515Y-13485508D02*
X8022562Y-13475984D01*
X8213039Y-13475984D02*
X8232086Y-13475984D01*
X8232086Y-13475984D02*
X8251134Y-13485508D01*
X8251134Y-13485508D02*
X8260658Y-13495031D01*
X8260658Y-13495031D02*
X8270182Y-13514079D01*
X8270182Y-13514079D02*
X8279705Y-13552174D01*
X8279705Y-13552174D02*
X8279705Y-13599793D01*
X8279705Y-13599793D02*
X8270182Y-13637888D01*
X8270182Y-13637888D02*
X8260658Y-13656936D01*
X8260658Y-13656936D02*
X8251134Y-13666460D01*
X8251134Y-13666460D02*
X8232086Y-13675984D01*
X8232086Y-13675984D02*
X8213039Y-13675984D01*
X8213039Y-13675984D02*
X8193991Y-13666460D01*
X8193991Y-13666460D02*
X8184467Y-13656936D01*
X8184467Y-13656936D02*
X8174943Y-13637888D01*
X8174943Y-13637888D02*
X8165420Y-13599793D01*
X8165420Y-13599793D02*
X8165420Y-13552174D01*
X8165420Y-13552174D02*
X8174943Y-13514079D01*
X8174943Y-13514079D02*
X8184467Y-13495031D01*
X8184467Y-13495031D02*
X8193991Y-13485508D01*
X8193991Y-13485508D02*
X8213039Y-13475984D01*
X8365420Y-13675984D02*
X8365420Y-13542650D01*
X8365420Y-13561698D02*
X8374943Y-13552174D01*
X8374943Y-13552174D02*
X8393991Y-13542650D01*
X8393991Y-13542650D02*
X8422563Y-13542650D01*
X8422563Y-13542650D02*
X8441610Y-13552174D01*
X8441610Y-13552174D02*
X8451134Y-13571222D01*
X8451134Y-13571222D02*
X8451134Y-13675984D01*
X8451134Y-13571222D02*
X8460658Y-13552174D01*
X8460658Y-13552174D02*
X8479705Y-13542650D01*
X8479705Y-13542650D02*
X8508277Y-13542650D01*
X8508277Y-13542650D02*
X8527325Y-13552174D01*
X8527325Y-13552174D02*
X8536848Y-13571222D01*
X8536848Y-13571222D02*
X8536848Y-13675984D01*
X8632086Y-13675984D02*
X8632086Y-13542650D01*
X8632086Y-13561698D02*
X8641610Y-13552174D01*
X8641610Y-13552174D02*
X8660658Y-13542650D01*
X8660658Y-13542650D02*
X8689229Y-13542650D01*
X8689229Y-13542650D02*
X8708277Y-13552174D01*
X8708277Y-13552174D02*
X8717801Y-13571222D01*
X8717801Y-13571222D02*
X8717801Y-13675984D01*
X8717801Y-13571222D02*
X8727325Y-13552174D01*
X8727325Y-13552174D02*
X8746372Y-13542650D01*
X8746372Y-13542650D02*
X8774944Y-13542650D01*
X8774944Y-13542650D02*
X8793991Y-13552174D01*
X8793991Y-13552174D02*
X8803515Y-13571222D01*
X8803515Y-13571222D02*
X8803515Y-13675984D01*
X9193991Y-13466460D02*
X9022563Y-13723603D01*
X9451134Y-13475984D02*
X9470182Y-13475984D01*
X9470182Y-13475984D02*
X9489229Y-13485508D01*
X9489229Y-13485508D02*
X9498753Y-13495031D01*
X9498753Y-13495031D02*
X9508277Y-13514079D01*
X9508277Y-13514079D02*
X9517801Y-13552174D01*
X9517801Y-13552174D02*
X9517801Y-13599793D01*
X9517801Y-13599793D02*
X9508277Y-13637888D01*
X9508277Y-13637888D02*
X9498753Y-13656936D01*
X9498753Y-13656936D02*
X9489229Y-13666460D01*
X9489229Y-13666460D02*
X9470182Y-13675984D01*
X9470182Y-13675984D02*
X9451134Y-13675984D01*
X9451134Y-13675984D02*
X9432087Y-13666460D01*
X9432087Y-13666460D02*
X9422563Y-13656936D01*
X9422563Y-13656936D02*
X9413039Y-13637888D01*
X9413039Y-13637888D02*
X9403515Y-13599793D01*
X9403515Y-13599793D02*
X9403515Y-13552174D01*
X9403515Y-13552174D02*
X9413039Y-13514079D01*
X9413039Y-13514079D02*
X9422563Y-13495031D01*
X9422563Y-13495031D02*
X9432087Y-13485508D01*
X9432087Y-13485508D02*
X9451134Y-13475984D01*
X9603515Y-13656936D02*
X9613039Y-13666460D01*
X9613039Y-13666460D02*
X9603515Y-13675984D01*
X9603515Y-13675984D02*
X9593991Y-13666460D01*
X9593991Y-13666460D02*
X9603515Y-13656936D01*
X9603515Y-13656936D02*
X9603515Y-13675984D01*
X9803515Y-13675984D02*
X9689229Y-13675984D01*
X9746372Y-13675984D02*
X9746372Y-13475984D01*
X9746372Y-13475984D02*
X9727325Y-13504555D01*
X9727325Y-13504555D02*
X9708277Y-13523603D01*
X9708277Y-13523603D02*
X9689229Y-13533127D01*
X9879706Y-13495031D02*
X9889229Y-13485508D01*
X9889229Y-13485508D02*
X9908277Y-13475984D01*
X9908277Y-13475984D02*
X9955896Y-13475984D01*
X9955896Y-13475984D02*
X9974944Y-13485508D01*
X9974944Y-13485508D02*
X9984468Y-13495031D01*
X9984468Y-13495031D02*
X9993991Y-13514079D01*
X9993991Y-13514079D02*
X9993991Y-13533127D01*
X9993991Y-13533127D02*
X9984468Y-13561698D01*
X9984468Y-13561698D02*
X9870182Y-13675984D01*
X9870182Y-13675984D02*
X9993991Y-13675984D01*
X10165420Y-13475984D02*
X10127325Y-13475984D01*
X10127325Y-13475984D02*
X10108277Y-13485508D01*
X10108277Y-13485508D02*
X10098753Y-13495031D01*
X10098753Y-13495031D02*
X10079706Y-13523603D01*
X10079706Y-13523603D02*
X10070182Y-13561698D01*
X10070182Y-13561698D02*
X10070182Y-13637888D01*
X10070182Y-13637888D02*
X10079706Y-13656936D01*
X10079706Y-13656936D02*
X10089229Y-13666460D01*
X10089229Y-13666460D02*
X10108277Y-13675984D01*
X10108277Y-13675984D02*
X10146372Y-13675984D01*
X10146372Y-13675984D02*
X10165420Y-13666460D01*
X10165420Y-13666460D02*
X10174944Y-13656936D01*
X10174944Y-13656936D02*
X10184468Y-13637888D01*
X10184468Y-13637888D02*
X10184468Y-13590269D01*
X10184468Y-13590269D02*
X10174944Y-13571222D01*
X10174944Y-13571222D02*
X10165420Y-13561698D01*
X10165420Y-13561698D02*
X10146372Y-13552174D01*
X10146372Y-13552174D02*
X10108277Y-13552174D01*
X10108277Y-13552174D02*
X10089229Y-13561698D01*
X10089229Y-13561698D02*
X10079706Y-13571222D01*
X10079706Y-13571222D02*
X10070182Y-13590269D01*
X10308277Y-13475984D02*
X10327325Y-13475984D01*
X10327325Y-13475984D02*
X10346372Y-13485508D01*
X10346372Y-13485508D02*
X10355896Y-13495031D01*
X10355896Y-13495031D02*
X10365420Y-13514079D01*
X10365420Y-13514079D02*
X10374944Y-13552174D01*
X10374944Y-13552174D02*
X10374944Y-13599793D01*
X10374944Y-13599793D02*
X10365420Y-13637888D01*
X10365420Y-13637888D02*
X10355896Y-13656936D01*
X10355896Y-13656936D02*
X10346372Y-13666460D01*
X10346372Y-13666460D02*
X10327325Y-13675984D01*
X10327325Y-13675984D02*
X10308277Y-13675984D01*
X10308277Y-13675984D02*
X10289229Y-13666460D01*
X10289229Y-13666460D02*
X10279706Y-13656936D01*
X10279706Y-13656936D02*
X10270182Y-13637888D01*
X10270182Y-13637888D02*
X10260658Y-13599793D01*
X10260658Y-13599793D02*
X10260658Y-13552174D01*
X10260658Y-13552174D02*
X10270182Y-13514079D01*
X10270182Y-13514079D02*
X10279706Y-13495031D01*
X10279706Y-13495031D02*
X10289229Y-13485508D01*
X10289229Y-13485508D02*
X10308277Y-13475984D01*
X10451134Y-13475984D02*
X10451134Y-13514079D01*
X10527325Y-13475984D02*
X10527325Y-13514079D01*
X10822563Y-13752174D02*
X10813039Y-13742650D01*
X10813039Y-13742650D02*
X10793991Y-13714079D01*
X10793991Y-13714079D02*
X10784468Y-13695031D01*
X10784468Y-13695031D02*
X10774944Y-13666460D01*
X10774944Y-13666460D02*
X10765420Y-13618841D01*
X10765420Y-13618841D02*
X10765420Y-13580746D01*
X10765420Y-13580746D02*
X10774944Y-13533127D01*
X10774944Y-13533127D02*
X10784468Y-13504555D01*
X10784468Y-13504555D02*
X10793991Y-13485508D01*
X10793991Y-13485508D02*
X10813039Y-13456936D01*
X10813039Y-13456936D02*
X10822563Y-13447412D01*
X11003515Y-13675984D02*
X10889230Y-13675984D01*
X10946372Y-13675984D02*
X10946372Y-13475984D01*
X10946372Y-13475984D02*
X10927325Y-13504555D01*
X10927325Y-13504555D02*
X10908277Y-13523603D01*
X10908277Y-13523603D02*
X10889230Y-13533127D01*
X11079706Y-13495031D02*
X11089230Y-13485508D01*
X11089230Y-13485508D02*
X11108277Y-13475984D01*
X11108277Y-13475984D02*
X11155896Y-13475984D01*
X11155896Y-13475984D02*
X11174944Y-13485508D01*
X11174944Y-13485508D02*
X11184468Y-13495031D01*
X11184468Y-13495031D02*
X11193991Y-13514079D01*
X11193991Y-13514079D02*
X11193991Y-13533127D01*
X11193991Y-13533127D02*
X11184468Y-13561698D01*
X11184468Y-13561698D02*
X11070182Y-13675984D01*
X11070182Y-13675984D02*
X11193991Y-13675984D01*
X11432087Y-13675984D02*
X11432087Y-13475984D01*
X11517801Y-13675984D02*
X11517801Y-13571222D01*
X11517801Y-13571222D02*
X11508277Y-13552174D01*
X11508277Y-13552174D02*
X11489230Y-13542650D01*
X11489230Y-13542650D02*
X11460658Y-13542650D01*
X11460658Y-13542650D02*
X11441610Y-13552174D01*
X11441610Y-13552174D02*
X11432087Y-13561698D01*
X11641610Y-13675984D02*
X11622563Y-13666460D01*
X11622563Y-13666460D02*
X11613039Y-13656936D01*
X11613039Y-13656936D02*
X11603515Y-13637888D01*
X11603515Y-13637888D02*
X11603515Y-13580746D01*
X11603515Y-13580746D02*
X11613039Y-13561698D01*
X11613039Y-13561698D02*
X11622563Y-13552174D01*
X11622563Y-13552174D02*
X11641610Y-13542650D01*
X11641610Y-13542650D02*
X11670182Y-13542650D01*
X11670182Y-13542650D02*
X11689230Y-13552174D01*
X11689230Y-13552174D02*
X11698753Y-13561698D01*
X11698753Y-13561698D02*
X11708277Y-13580746D01*
X11708277Y-13580746D02*
X11708277Y-13637888D01*
X11708277Y-13637888D02*
X11698753Y-13656936D01*
X11698753Y-13656936D02*
X11689230Y-13666460D01*
X11689230Y-13666460D02*
X11670182Y-13675984D01*
X11670182Y-13675984D02*
X11641610Y-13675984D01*
X11822563Y-13675984D02*
X11803515Y-13666460D01*
X11803515Y-13666460D02*
X11793991Y-13647412D01*
X11793991Y-13647412D02*
X11793991Y-13475984D01*
X11974944Y-13666460D02*
X11955896Y-13675984D01*
X11955896Y-13675984D02*
X11917801Y-13675984D01*
X11917801Y-13675984D02*
X11898753Y-13666460D01*
X11898753Y-13666460D02*
X11889230Y-13647412D01*
X11889230Y-13647412D02*
X11889230Y-13571222D01*
X11889230Y-13571222D02*
X11898753Y-13552174D01*
X11898753Y-13552174D02*
X11917801Y-13542650D01*
X11917801Y-13542650D02*
X11955896Y-13542650D01*
X11955896Y-13542650D02*
X11974944Y-13552174D01*
X11974944Y-13552174D02*
X11984468Y-13571222D01*
X11984468Y-13571222D02*
X11984468Y-13590269D01*
X11984468Y-13590269D02*
X11889230Y-13609317D01*
X12060658Y-13666460D02*
X12079706Y-13675984D01*
X12079706Y-13675984D02*
X12117801Y-13675984D01*
X12117801Y-13675984D02*
X12136849Y-13666460D01*
X12136849Y-13666460D02*
X12146372Y-13647412D01*
X12146372Y-13647412D02*
X12146372Y-13637888D01*
X12146372Y-13637888D02*
X12136849Y-13618841D01*
X12136849Y-13618841D02*
X12117801Y-13609317D01*
X12117801Y-13609317D02*
X12089230Y-13609317D01*
X12089230Y-13609317D02*
X12070182Y-13599793D01*
X12070182Y-13599793D02*
X12060658Y-13580746D01*
X12060658Y-13580746D02*
X12060658Y-13571222D01*
X12060658Y-13571222D02*
X12070182Y-13552174D01*
X12070182Y-13552174D02*
X12089230Y-13542650D01*
X12089230Y-13542650D02*
X12117801Y-13542650D01*
X12117801Y-13542650D02*
X12136849Y-13552174D01*
X12213039Y-13752174D02*
X12222563Y-13742650D01*
X12222563Y-13742650D02*
X12241611Y-13714079D01*
X12241611Y-13714079D02*
X12251134Y-13695031D01*
X12251134Y-13695031D02*
X12260658Y-13666460D01*
X12260658Y-13666460D02*
X12270182Y-13618841D01*
X12270182Y-13618841D02*
X12270182Y-13580746D01*
X12270182Y-13580746D02*
X12260658Y-13533127D01*
X12260658Y-13533127D02*
X12251134Y-13504555D01*
X12251134Y-13504555D02*
X12241611Y-13485508D01*
X12241611Y-13485508D02*
X12222563Y-13456936D01*
X12222563Y-13456936D02*
X12213039Y-13447412D01*
M02*
