M48
; DRILL file {KiCad 8.0.7-8.0.7-0~ubuntu22.04.1} date 2025-03-20T12:44:06-0400
; FORMAT={-:-/ absolute / metric / decimal}
; #@! TF.CreationDate,2025-03-20T12:44:06-04:00
; #@! TF.GenerationSoftware,Kicad,Pcbnew,8.0.7-8.0.7-0~ubuntu22.04.1
; #@! TF.FileFunction,Plated,1,2,PTH
FMAT,2
METRIC
; #@! TA.AperFunction,Plated,PTH,ViaDrill
T1C0.300
; #@! TA.AperFunction,Plated,PTH,ComponentDrill
T2C0.300
; #@! TA.AperFunction,Plated,PTH,ComponentDrill
T3C1.000
; #@! TA.AperFunction,Plated,PTH,ComponentDrill
T4C3.200
%
G90
G05
T1
X73.775Y-96.925
X75.0Y-87.5
X75.0Y-90.0
X75.0Y-92.5
X75.0Y-111.0
X75.0Y-113.0
X76.1Y-104.25
X76.2Y-106.05
X76.2Y-108.6
X77.0Y-113.0
X77.4Y-102.2
X77.55Y-95.575
X78.75Y-99.225
X79.7Y-94.85
X80.65Y-98.275
X82.25Y-95.1
X83.0Y-104.0
X83.5Y-110.75
X83.75Y-113.7
X86.225Y-95.2
X87.45Y-106.475
X87.5Y-92.5
X87.5Y-97.5
X90.0Y-85.0
X90.0Y-115.0
X90.5Y-96.0
X90.5Y-97.5
X91.25Y-96.0
X91.25Y-97.5
X92.0Y-96.0
X92.0Y-97.5
X92.5Y-92.5
X92.5Y-107.5
X92.75Y-96.0
X92.75Y-97.5
X93.5Y-96.0
X93.5Y-97.5
X94.25Y-96.0
X94.25Y-97.5
X95.0Y-85.0
X95.0Y-95.0
X95.0Y-96.0
X95.0Y-97.5
X95.0Y-105.0
X97.0Y-98.5
X98.5Y-97.0
X98.5Y-98.5
X100.0Y-85.0
X100.0Y-100.0
X100.0Y-115.0
X100.0Y-118.0
X101.5Y-103.0
X102.525Y-104.75
X102.525Y-105.5
X102.525Y-106.25
X102.525Y-107.0
X102.525Y-107.75
X102.525Y-108.5
X102.525Y-109.25
X103.0Y-101.5
X104.0Y-104.75
X104.0Y-105.5
X104.0Y-106.25
X104.0Y-107.0
X104.0Y-107.75
X104.0Y-108.5
X104.0Y-109.25
X105.0Y-95.0
X105.0Y-105.0
X105.0Y-117.5
X106.5Y-114.673
X107.5Y-92.5
X107.5Y-107.5
X108.9Y-111.7
X109.6Y-115.3
X110.0Y-109.0
X110.6Y-113.55
X112.5Y-92.5
X112.5Y-97.5
X112.5Y-105.0
X115.0Y-85.0
X115.5Y-96.0
X115.5Y-97.5
X115.7Y-110.373
X116.25Y-96.0
X116.25Y-97.5
X117.0Y-96.0
X117.0Y-97.5
X117.5Y-92.5
X117.5Y-107.5
X117.75Y-96.0
X117.75Y-97.5
X118.5Y-96.0
X118.5Y-97.5
X119.25Y-96.0
X119.25Y-97.5
X120.0Y-85.0
X120.0Y-95.0
X120.0Y-96.0
X120.0Y-97.5
X120.0Y-105.0
X122.0Y-98.5
X123.5Y-97.0
X123.5Y-98.5
X125.0Y-100.0
X125.0Y-115.0
X125.0Y-118.0
X126.5Y-103.0
X127.525Y-104.75
X127.525Y-105.5
X127.525Y-106.25
X127.525Y-107.0
X127.525Y-107.75
X127.525Y-108.5
X127.525Y-109.25
X128.0Y-101.5
X129.0Y-104.75
X129.0Y-105.5
X129.0Y-106.25
X129.0Y-107.0
X129.0Y-107.75
X129.0Y-108.5
X129.0Y-109.25
X130.0Y-95.0
X130.0Y-105.0
X130.0Y-117.5
X131.5Y-114.673
X132.5Y-92.5
X132.5Y-107.5
X133.9Y-111.725
X134.6Y-115.3
X135.0Y-109.0
X135.6Y-113.55
X137.5Y-92.5
X137.5Y-97.5
X137.5Y-105.0
X140.0Y-85.0
X140.5Y-96.0
X140.5Y-97.5
X140.7Y-110.373
X141.25Y-96.0
X141.25Y-97.5
X142.0Y-96.0
X142.0Y-97.5
X142.5Y-92.5
X142.5Y-107.5
X142.75Y-96.0
X142.75Y-97.5
X143.5Y-96.0
X143.5Y-97.5
X144.25Y-96.0
X144.25Y-97.5
X145.0Y-85.0
X145.0Y-95.0
X145.0Y-96.0
X145.0Y-97.5
X145.0Y-105.0
X147.0Y-98.5
X148.5Y-97.0
X148.5Y-98.5
X150.0Y-100.0
X150.0Y-115.0
X150.0Y-118.0
X151.5Y-103.0
X152.55Y-104.75
X152.55Y-105.5
X152.55Y-106.25
X152.55Y-107.0
X152.55Y-107.75
X152.55Y-108.5
X152.55Y-109.25
X153.0Y-101.5
X154.0Y-104.75
X154.0Y-105.5
X154.0Y-106.25
X154.0Y-107.0
X154.0Y-107.75
X154.0Y-108.5
X154.0Y-109.25
X155.0Y-95.0
X155.0Y-105.0
X155.0Y-117.5
X156.5Y-114.673
X157.5Y-92.5
X157.5Y-107.5
X158.95Y-111.675
X159.6Y-115.3
X160.0Y-109.0
X160.65Y-113.55
X162.5Y-92.5
X162.5Y-97.5
X162.5Y-105.0
X165.0Y-85.0
X165.5Y-96.0
X165.5Y-97.5
X165.7Y-110.392
X166.25Y-96.0
X166.25Y-97.5
X167.0Y-96.0
X167.0Y-97.5
X167.5Y-92.5
X167.5Y-107.5
X167.75Y-96.0
X167.75Y-97.5
X168.5Y-96.0
X168.5Y-97.5
X169.25Y-96.0
X169.25Y-97.5
X170.0Y-85.0
X170.0Y-95.0
X170.0Y-96.0
X170.0Y-97.5
X170.0Y-105.0
X172.0Y-98.5
X173.5Y-97.0
X173.5Y-98.5
X175.0Y-100.0
X175.0Y-115.0
X175.0Y-118.0
X176.5Y-103.0
X177.55Y-104.75
X177.55Y-105.5
X177.55Y-106.25
X177.55Y-107.0
X177.55Y-107.75
X177.55Y-108.5
X177.55Y-109.25
X178.0Y-101.5
X179.0Y-104.75
X179.0Y-105.5
X179.0Y-106.25
X179.0Y-107.0
X179.0Y-107.75
X179.0Y-108.5
X179.0Y-109.25
X180.0Y-95.0
X180.0Y-105.0
X180.0Y-117.5
X181.5Y-114.673
X182.5Y-92.5
X182.5Y-107.5
X183.9Y-111.7
X184.5Y-113.5
X184.6Y-115.3
X185.0Y-85.0
X185.0Y-109.0
X187.5Y-95.0
X187.5Y-105.0
X191.4Y-114.545
X197.5Y-95.0
X197.5Y-105.0
T2
X78.6Y-105.062
X78.6Y-106.062
X78.6Y-107.062
X78.7Y-90.7
X78.7Y-91.7
X78.7Y-92.7
X79.6Y-105.062
X79.6Y-106.062
X79.6Y-107.062
X79.7Y-90.7
X79.7Y-91.7
X79.7Y-92.7
X80.6Y-105.062
X80.6Y-106.062
X80.6Y-107.062
X80.7Y-90.7
X80.7Y-91.7
X80.7Y-92.7
T3
X74.92Y-82.0
X74.92Y-84.54
X74.92Y-116.46
X74.92Y-119.0
X77.46Y-82.0
X77.46Y-84.54
X77.46Y-116.46
X77.46Y-119.0
X80.0Y-82.0
X80.0Y-84.54
X80.0Y-116.46
X80.0Y-119.0
X193.46Y-82.46
X193.46Y-85.0
X193.46Y-116.46
X193.46Y-119.0
X196.0Y-82.46
X196.0Y-85.0
X196.0Y-116.46
X196.0Y-119.0
X198.54Y-82.46
X198.54Y-85.0
X198.54Y-116.46
X198.54Y-119.0
T4
X84.5Y-83.25
X84.5Y-117.75
X95.5Y-115.0
X104.5Y-85.0
X120.5Y-115.0
X129.5Y-85.0
X145.5Y-115.0
X154.5Y-85.0
X170.5Y-115.0
X179.5Y-85.0
X197.25Y-89.5
X197.25Y-112.25
M30
